<svg id="Layer_1" data-name="Layer 1" xmlns="http://www.w3.org/2000/svg" viewBox="0 0 1195.12498 559.05545"><defs><style>.cls-1{fill:#1e4164;}.cls-2{fill:#ff5e00;}.cls-3{fill:#fff;}</style></defs><path class="cls-1" d="M160.65908,0h56.09027V307.3952H160.65908V181.96342H93.96868a34.51135,34.51135,0,0,0-30.25344,17.225,33.60085,33.60085,0,0,0-4.638,17.225V307.3952H2.987V216.41349q0-37.53465,26.721-64.04073,26.71527-26.4996,64.2607-26.49961h66.6904ZM59.07724,102.90668A115.11939,115.11939,0,0,0,2.987,140.0057V0H59.07724Z" transform="translate(-2.98697)"/><path class="cls-1" d="M360.28891,88.332A103.52649,103.52649,0,0,1,413.5081,102.686a106.25534,106.25534,0,0,1,52.77925,92.08586V307.3952h-56.0917V194.77185a48.49994,48.49994,0,0,0-14.79533-35.5535q-14.80253-14.7928-35.33282-14.796-20.53891,0-35.33281,14.796a48.47346,48.47346,0,0,0-14.79677,35.5535v11.48288a47.73122,47.73122,0,0,0,14.79677,35.33282,48.8361,48.8361,0,0,0,35.55422,14.57536,47.909,47.909,0,0,0,21.6402-5.30007v59.182a88.90053,88.90053,0,0,1-21.6402,2.64968q-44.17034,0-75.30364-31.35759-31.13618-31.354-31.13762-75.08223V194.77185q0-43.72392,31.13762-75.08223Q316.12145,88.33563,360.28891,88.332Z" transform="translate(-2.98697)"/><path class="cls-1" d="M532.3121,119.68962q31.13834-31.354,75.08223-31.35758,43.94173,0,75.08223,31.35758,31.13834,31.36477,31.13762,75.08223v11.48288q0,43.725-31.13762,75.08223-31.13617,31.36478-74.86083,31.35759a90.67585,90.67585,0,0,1-22.083-2.64968v-59.182a48.767,48.767,0,0,0,22.083,5.30007q20.31033,0,35.11141-14.57536a47.75291,47.75291,0,0,0,14.79677-35.33282V194.77185a48.84225,48.84225,0,0,0-3.97523-19.43333,52.92994,52.92994,0,0,0-10.60013-16.12017,48.35535,48.35535,0,0,0-15.89948-10.82082,50.37129,50.37129,0,0,0-69.78288,46.37432V414.71776H501.17592V194.77185Q501.17592,151.04793,532.3121,119.68962Z" transform="translate(-2.98697)"/><path class="cls-1" d="M774.78239,119.68962q31.13618-31.354,75.08223-31.35758,43.94174,0,75.08223,31.35758,31.13619,31.36477,31.13762,75.08223v11.48288q0,43.725-31.13762,75.08223-31.13618,31.36478-74.86082,31.35759a90.66731,90.66731,0,0,1-22.083-2.64968v-59.182a48.76262,48.76262,0,0,0,22.083,5.30007q20.30817,0,35.11141-14.57536a47.757,47.757,0,0,0,14.79532-35.33282V194.77185a48.8174,48.8174,0,0,0-3.97523-19.43333,52.92615,52.92615,0,0,0-10.59869-16.12017,50.24031,50.24031,0,0,0-85.6838,35.5535V414.71776H743.64477V194.77185Q743.64477,151.04793,774.78239,119.68962Z" transform="translate(-2.98697)"/><path class="cls-1" d="M1142.02168,93.63138H1198.112V206.25473q0,44.17033-31.13762,75.30364-31.13618,31.13617-75.08223,31.13618-43.95036,0-75.08223-31.13618-31.13618-31.13726-31.13474-75.30364V93.63138h56.09027V206.25473a48.45044,48.45044,0,0,0,14.79389,35.55422q14.79389,14.80252,35.33281,14.79533,20.53893,0,35.33282-14.79533a48.47537,48.47537,0,0,0,14.79676-35.55422Zm-.88274,237.61376a131.33774,131.33774,0,0,0,56.973-43.28327v36.21556q-1.32411,43.27966-32.24177,73.5367-30.91621,30.24769-73.75667,30.25344-44.17034,0-75.30364-31.35759-31.13618-31.36478-31.13474-75.08223h56.09027a59.1436,59.1436,0,0,0,.88274,9.71739l1.32556,4.4166q1.32411,3.5281,1.54408,4.4166a22.69394,22.69394,0,0,0,1.98977,3.97379,41.04729,41.04729,0,0,0,1.9869,4.19664,20.80217,20.80217,0,0,0,2.86964,3.31245q1.75974,2.6504,2.65111,3.97523a29.0528,29.0528,0,0,1,3.091,2.64967,40.94469,40.94469,0,0,0,3.75526,3.31245q1.984,1.54194,3.31245,2.42827a36.48962,36.48962,0,0,1,4.85654,2.42971,9.75824,9.75824,0,0,0,3.53385,1.54552,27.33243,27.33243,0,0,0,5.74216,1.76693,3.0916,3.0916,0,0,0,1.54409.66278,9.44572,9.44572,0,0,0,1.547.22,54.3723,54.3723,0,0,0,9.71595.88419,48.018,48.018,0,0,0,31.799-11.48288A49.56655,49.56655,0,0,0,1141.13894,331.24514Z" transform="translate(-2.98697)"/><rect class="cls-2" x="857.99364" y="437.43887" width="337.13134" height="121.61657"/><path class="cls-3" d="M911.47741,514.24226h5.58688v12.90045h-5.58688a24.44982,24.44982,0,0,1-24.48109-24.48109V459.48905h12.90045v18.48877H914.626v13.00252H899.89677v11.68128a11.61885,11.61885,0,0,0,11.58064,11.58064Z" transform="translate(-2.98697)"/><path class="cls-3" d="M931.28454,469.85053a7.28614,7.28614,0,0,1-3.70782-.9647,7.0563,7.0563,0,0,1-2.641-2.64105,7.28613,7.28613,0,0,1-.9647-3.70781,7.32567,7.32567,0,1,1,7.31356,7.31356Zm6.49983,57.29218H924.78328V477.97782h13.00109Z" transform="translate(-2.98697)"/><path class="cls-3" d="M970.18859,515.35935a11.39824,11.39824,0,0,0,11.07314-8.6348l12.19022,4.57187a24.38761,24.38761,0,0,1-8.83752,12.29087,24.45579,24.45579,0,0,1-38.90692-19.7065v-2.64105a24.40639,24.40639,0,0,1,38.90692-19.7065,24.39974,24.39974,0,0,1,8.83752,12.29087L981.26173,498.396a11.2486,11.2486,0,0,0-4.01261-6.24823,10.97356,10.97356,0,0,0-7.06053-2.48865,11.47712,11.47712,0,0,0-4.57043.91437,11.132,11.132,0,0,0-3.6575,2.48866,12.19445,12.19445,0,0,0-2.43689,3.70781,11.23084,11.23084,0,0,0-.91438,4.4698v2.64105a10.97885,10.97885,0,0,0,3.403,8.12729A11.23172,11.23172,0,0,0,970.18859,515.35935Z" transform="translate(-2.98697)"/><path class="cls-3" d="M1029.715,508.04579l17.47231,19.09692H1029.715l-9.54918-10.36148q-5.28138-5.79032-6.50126-10.36147v20.72295h-12.90045V456.44257h12.90045v40.83488q1.2206-4.16429,6.50126-10.36147l7.11084-8.93816h16.55795l-13.71275,17.06545a42.885,42.885,0,0,0-3.403,4.418,4.6788,4.6788,0,0,0-.762,2.388,6.32259,6.32259,0,0,0,.10064,1.21917,6.25095,6.25095,0,0,0,.96613,1.777A26.94222,26.94222,0,0,0,1029.715,508.04579Z" transform="translate(-2.98697)"/><path class="cls-3" d="M1053.74029,483.97014a24.43,24.43,0,0,1,41.69893,17.2696v2.64105a21.7835,21.7835,0,0,1-.40686,4.06293h-34.74049a10.91509,10.91509,0,0,0,4.165,5.38417,11.34913,11.34913,0,0,0,6.6019,2.03146,11.21968,11.21968,0,0,0,7.61978-2.94584L1091.579,517.086a24.66822,24.66822,0,0,1-8.7872,8.22793,24.46562,24.46562,0,0,1-36.21412-21.43317v-2.64105A23.64979,23.64979,0,0,1,1053.74029,483.97014Zm6.55158,13.20667H1081.725a10.92953,10.92953,0,0,0-4.165-5.38417,11.58035,11.58035,0,0,0-13.10316,0A10.92139,10.92139,0,0,0,1060.29187,497.17681Z" transform="translate(-2.98697)"/><path class="cls-3" d="M1126.42013,514.24226h5.58689v12.90045h-5.58689a24.45226,24.45226,0,0,1-24.48108-24.48109V459.48905h12.90188v18.48877h14.72919v13.00252h-14.72919v11.68128a11.61888,11.61888,0,0,0,11.5792,11.58064Z" transform="translate(-2.98697)"/><path class="cls-3" d="M1168.67689,496.16036a15.0529,15.0529,0,0,1,10.97106,4.52012,15.45291,15.45291,0,0,1,0,21.94211,15.04727,15.04727,0,0,1-10.97106,4.52012H1138.4062V514.24226h30.27069a2.55435,2.55435,0,0,0,1.87907-.762,2.57548,2.57548,0,0,0,0-3.65749,2.55435,2.55435,0,0,0-1.87907-.762H1153.9477a15.54154,15.54154,0,0,1,0-31.083H1178.124v13.00252H1153.9477a2.54652,2.54652,0,0,0-1.87907.762,2.57376,2.57376,0,0,0,0,3.65606,2.54648,2.54648,0,0,0,1.87907.762Z" transform="translate(-2.98697)"/><path class="cls-2" d="M335.138,558.83714c-32.90926,1.33849-68.86293-3.6088-103.78128-11.24892a405.52875,405.52875,0,0,1-92.54056-32.45716c-36.54578-18.0462-70.80683-39.32914-101.7609-66.37145-10.03-8.76248-19.84682-17.82478-29.83221-26.67717-6.02455-5.341-5.04032-11.05914-.6873-15.77327,3.63474-3.9363,7.94587-3.3801,13.65727-.13225,58.41671,33.21943,121.82337,51.47527,187.79373,62.64545,29.67216,5.0241,59.47367,10.115,89.31276,10.81388,38.25436.896,77.0301,4.70337,114.8765-1.04689,57.32715-8.71011,114.59727-18.38861,169.79214-37.93421,24.549-8.69328,47.21713-20.67672,70.53177-31.62006,6.12108-2.87311,12.65041-6.796,17.74873-.40441,4.93326,6.1846,1.12957,12.22327-4.13939,17.05659-20.87486,19.14878-42.07111,37.80059-65.48858,53.974-26.82209,18.52487-55.41145,34.648-85.21531,46.35015-34.80456,13.66562-71.51116,23.63389-109.1788,28.173C383.70024,556.8989,361.17875,559.25716,335.138,558.83714Z" transform="translate(-2.98697)"/><path class="cls-2" d="M713.61418,436.331c-.23856,5.60838,1.48006,13.23549-8.52764,13.65439-8.755.36642-10.2929-5.07-10.92676-12.62556-2.1342-25.4403-19.95235-44.44654-44.86673-48.81178-2.56945-.45019-5.15384-.88244-7.75-1.10078-6.33439-.53275-9.63564-4.10723-9.29035-10.237.3619-6.42147,4.94884-8.93408,10.78583-8.81472C683.07109,369.21411,712.14738,399.81432,713.61418,436.331Z" transform="translate(-2.98697)"/></svg>