<?xml version="1.0" encoding="UTF-8"?><svg id="Layer_2" xmlns="http://www.w3.org/2000/svg" xmlns:xlink="http://www.w3.org/1999/xlink" viewBox="0 0 355.23 315.87" width="274" height="253"><defs><style>.cls-1{fill:none;}.cls-2{clip-path:url(#clippath);}.cls-3{fill:#e9685a;}.cls-4{fill:#f39538;}.cls-5{fill:#e73b3c;}.cls-6{fill:#6496cb;}.cls-7{fill:#b0659e;}.cls-8{fill:#b062a2;}.cls-9{fill:#c84334;}.cls-10{fill:#d9a51f;}.cls-11{fill:#405377;}.cls-12{fill:#078576;}.cls-13{fill:#604d8b;}.cls-14{fill:#71b63b;}.cls-15{clip-path:url(#clippath-1);}.cls-16{clip-path:url(#clippath-4);}.cls-17{clip-path:url(#clippath-3);}.cls-18{clip-path:url(#clippath-2);}.cls-19{clip-path:url(#clippath-7);}.cls-20{clip-path:url(#clippath-8);}.cls-21{clip-path:url(#clippath-6);}.cls-22{clip-path:url(#clippath-5);}.cls-23{clip-path:url(#clippath-9);}.cls-24{clip-path:url(#clippath-60);}.cls-25{clip-path:url(#clippath-69);}.cls-26{clip-path:url(#clippath-20);}.cls-27{clip-path:url(#clippath-21);}.cls-28{clip-path:url(#clippath-24);}.cls-29{clip-path:url(#clippath-23);}.cls-30{clip-path:url(#clippath-22);}.cls-31{clip-path:url(#clippath-25);}.cls-32{clip-path:url(#clippath-44);}.cls-33{clip-path:url(#clippath-45);}.cls-34{clip-path:url(#clippath-40);}.cls-35{clip-path:url(#clippath-42);}.cls-36{clip-path:url(#clippath-41);}.cls-37{clip-path:url(#clippath-47);}.cls-38{clip-path:url(#clippath-43);}.cls-39{clip-path:url(#clippath-46);}.cls-40{clip-path:url(#clippath-48);}.cls-41{clip-path:url(#clippath-49);}.cls-42{clip-path:url(#clippath-84);}.cls-43{clip-path:url(#clippath-88);}.cls-44{clip-path:url(#clippath-86);}.cls-45{clip-path:url(#clippath-81);}.cls-46{clip-path:url(#clippath-83);}.cls-47{clip-path:url(#clippath-85);}.cls-48{clip-path:url(#clippath-80);}.cls-49{clip-path:url(#clippath-87);}.cls-50{clip-path:url(#clippath-82);}.cls-51{clip-path:url(#clippath-98);}.cls-52{clip-path:url(#clippath-89);}.cls-53{clip-path:url(#clippath-27);}.cls-54{clip-path:url(#clippath-28);}.cls-55{clip-path:url(#clippath-26);}.cls-56{clip-path:url(#clippath-29);}.cls-57{clip-path:url(#clippath-34);}.cls-58{clip-path:url(#clippath-35);}.cls-59{clip-path:url(#clippath-36);}.cls-60{clip-path:url(#clippath-37);}.cls-61{clip-path:url(#clippath-39);}.cls-62{clip-path:url(#clippath-33);}.cls-63{clip-path:url(#clippath-32);}.cls-64{clip-path:url(#clippath-30);}.cls-65{clip-path:url(#clippath-38);}.cls-66{clip-path:url(#clippath-31);}.cls-67{clip-path:url(#clippath-95);}.cls-68{clip-path:url(#clippath-99);}.cls-69{clip-path:url(#clippath-93);}.cls-70{clip-path:url(#clippath-94);}.cls-71{clip-path:url(#clippath-91);}.cls-72{clip-path:url(#clippath-96);}.cls-73{clip-path:url(#clippath-90);}.cls-74{clip-path:url(#clippath-92);}.cls-75{clip-path:url(#clippath-97);}.cls-76{clip-path:url(#clippath-53);}.cls-77{clip-path:url(#clippath-54);}.cls-78{clip-path:url(#clippath-50);}.cls-79{clip-path:url(#clippath-51);}.cls-80{clip-path:url(#clippath-52);}.cls-81{clip-path:url(#clippath-55);}.cls-82{clip-path:url(#clippath-56);}.cls-83{clip-path:url(#clippath-57);}.cls-84{clip-path:url(#clippath-58);}.cls-85{clip-path:url(#clippath-79);}.cls-86{clip-path:url(#clippath-61);}.cls-87{clip-path:url(#clippath-64);}.cls-88{clip-path:url(#clippath-62);}.cls-89{clip-path:url(#clippath-68);}.cls-90{clip-path:url(#clippath-67);}.cls-91{clip-path:url(#clippath-73);}.cls-92{clip-path:url(#clippath-59);}.cls-93{clip-path:url(#clippath-65);}.cls-94{clip-path:url(#clippath-63);}.cls-95{clip-path:url(#clippath-66);}.cls-96{clip-path:url(#clippath-70);}.cls-97{clip-path:url(#clippath-75);}.cls-98{clip-path:url(#clippath-72);}.cls-99{clip-path:url(#clippath-78);}.cls-100{clip-path:url(#clippath-71);}.cls-101{clip-path:url(#clippath-77);}.cls-102{clip-path:url(#clippath-74);}.cls-103{clip-path:url(#clippath-76);}.cls-104{clip-path:url(#clippath-14);}.cls-105{clip-path:url(#clippath-13);}.cls-106{clip-path:url(#clippath-12);}.cls-107{clip-path:url(#clippath-10);}.cls-108{clip-path:url(#clippath-15);}.cls-109{clip-path:url(#clippath-17);}.cls-110{clip-path:url(#clippath-16);}.cls-111{clip-path:url(#clippath-19);}.cls-112{clip-path:url(#clippath-11);}.cls-113{clip-path:url(#clippath-18);}.cls-114{clip-path:url(#clippath-144);}.cls-115{clip-path:url(#clippath-142);}.cls-116{clip-path:url(#clippath-141);}.cls-117{clip-path:url(#clippath-143);}.cls-118{clip-path:url(#clippath-140);}.cls-119{clip-path:url(#clippath-113);}.cls-120{clip-path:url(#clippath-112);}.cls-121{clip-path:url(#clippath-111);}.cls-122{clip-path:url(#clippath-110);}.cls-123{clip-path:url(#clippath-115);}.cls-124{clip-path:url(#clippath-114);}.cls-125{clip-path:url(#clippath-116);}.cls-126{clip-path:url(#clippath-117);}.cls-127{clip-path:url(#clippath-118);}.cls-128{clip-path:url(#clippath-119);}.cls-129{clip-path:url(#clippath-105);}.cls-130{clip-path:url(#clippath-100);}.cls-131{clip-path:url(#clippath-102);}.cls-132{clip-path:url(#clippath-103);}.cls-133{clip-path:url(#clippath-107);}.cls-134{clip-path:url(#clippath-109);}.cls-135{clip-path:url(#clippath-104);}.cls-136{clip-path:url(#clippath-101);}.cls-137{clip-path:url(#clippath-108);}.cls-138{clip-path:url(#clippath-106);}.cls-139{clip-path:url(#clippath-136);}.cls-140{clip-path:url(#clippath-138);}.cls-141{clip-path:url(#clippath-135);}.cls-142{clip-path:url(#clippath-132);}.cls-143{clip-path:url(#clippath-137);}.cls-144{clip-path:url(#clippath-130);}.cls-145{clip-path:url(#clippath-133);}.cls-146{clip-path:url(#clippath-134);}.cls-147{clip-path:url(#clippath-139);}.cls-148{clip-path:url(#clippath-131);}.cls-149{clip-path:url(#clippath-129);}.cls-150{clip-path:url(#clippath-122);}.cls-151{clip-path:url(#clippath-126);}.cls-152{clip-path:url(#clippath-125);}.cls-153{clip-path:url(#clippath-120);}.cls-154{clip-path:url(#clippath-123);}.cls-155{clip-path:url(#clippath-124);}.cls-156{clip-path:url(#clippath-127);}.cls-157{clip-path:url(#clippath-128);}</style><clipPath id="clippath"><path class="cls-1" d="M179.5,64.66l78.04,45.1,17.41-43.25c-43.3-20.67-85.8-23.34-85.8-23.34l-9.65,21.49Z"/></clipPath><clipPath id="clippath-1"><path class="cls-1" d="M179.5,64.66l78.04,45.1,17.41-43.25c-43.3-20.67-85.8-23.34-85.8-23.34l-9.65,21.49Z"/></clipPath><clipPath id="clippath-2"><path class="cls-1" d="M179.5,64.66l78.04,45.1,17.41-43.25c-43.3-20.67-85.8-23.34-85.8-23.34l-9.65,21.49Z"/></clipPath><clipPath id="clippath-3"><path class="cls-1" d="M179.5,64.66l78.04,45.1,17.41-43.25c-43.3-20.67-85.8-23.34-85.8-23.34l-9.65,21.49Z"/></clipPath><clipPath id="clippath-4"><path class="cls-1" d="M179.5,64.66l78.04,45.1,17.41-43.25c-43.3-20.67-85.8-23.34-85.8-23.34l-9.65,21.49Z"/></clipPath><clipPath id="clippath-5"><path class="cls-1" d="M179.5,64.66l78.04,45.1,17.41-43.25c-43.3-20.67-85.8-23.34-85.8-23.34l-9.65,21.49Z"/></clipPath><clipPath id="clippath-6"><path class="cls-1" d="M179.5,64.66l78.04,45.1,17.41-43.25c-43.3-20.67-85.8-23.34-85.8-23.34l-9.65,21.49Z"/></clipPath><clipPath id="clippath-7"><path class="cls-1" d="M179.5,64.66l78.04,45.1,17.41-43.25c-43.3-20.67-85.8-23.34-85.8-23.34l-9.65,21.49Z"/></clipPath><clipPath id="clippath-8"><path class="cls-1" d="M179.5,64.66l78.04,45.1,17.41-43.25c-43.3-20.67-85.8-23.34-85.8-23.34l-9.65,21.49Z"/></clipPath><clipPath id="clippath-9"><path class="cls-1" d="M179.5,64.66l78.04,45.1,17.41-43.25c-43.3-20.67-85.8-23.34-85.8-23.34l-9.65,21.49Z"/></clipPath><clipPath id="clippath-10"><path class="cls-1" d="M179.5,64.66l78.04,45.1,17.41-43.25c-43.3-20.67-85.8-23.34-85.8-23.34l-9.65,21.49Z"/></clipPath><clipPath id="clippath-11"><path class="cls-1" d="M179.5,64.66l78.04,45.1,17.41-43.25c-43.3-20.67-85.8-23.34-85.8-23.34l-9.65,21.49Z"/></clipPath><clipPath id="clippath-12"><path class="cls-1" d="M179.5,64.66l78.04,45.1,17.41-43.25c-43.3-20.67-85.8-23.34-85.8-23.34l-9.65,21.49Z"/></clipPath><clipPath id="clippath-13"><path class="cls-1" d="M179.5,64.66l78.04,45.1,17.41-43.25c-43.3-20.67-85.8-23.34-85.8-23.34l-9.65,21.49Z"/></clipPath><clipPath id="clippath-14"><path class="cls-1" d="M179.5,64.66l78.04,45.1,17.41-43.25c-43.3-20.67-85.8-23.34-85.8-23.34l-9.65,21.49Z"/></clipPath><clipPath id="clippath-15"><path class="cls-1" d="M179.5,64.66l78.04,45.1,17.41-43.25c-43.3-20.67-85.8-23.34-85.8-23.34l-9.65,21.49Z"/></clipPath><clipPath id="clippath-16"><path class="cls-1" d="M179.5,64.66l78.04,45.1,17.41-43.25c-43.3-20.67-85.8-23.34-85.8-23.34l-9.65,21.49Z"/></clipPath><clipPath id="clippath-17"><path class="cls-1" d="M179.5,64.66l78.04,45.1,17.41-43.25c-43.3-20.67-85.8-23.34-85.8-23.34l-9.65,21.49Z"/></clipPath><clipPath id="clippath-18"><path class="cls-1" d="M179.5,64.66l78.04,45.1,17.41-43.25c-43.3-20.67-85.8-23.34-85.8-23.34l-9.65,21.49Z"/></clipPath><clipPath id="clippath-19"><path class="cls-1" d="M179.5,64.66l78.04,45.1,17.41-43.25c-43.3-20.67-85.8-23.34-85.8-23.34l-9.65,21.49Z"/></clipPath><clipPath id="clippath-20"><path class="cls-1" d="M179.5,64.66l78.04,45.1,17.41-43.25c-43.3-20.67-85.8-23.34-85.8-23.34l-9.65,21.49Z"/></clipPath><clipPath id="clippath-21"><path class="cls-1" d="M179.5,64.66l78.04,45.1,17.41-43.25c-43.3-20.67-85.8-23.34-85.8-23.34l-9.65,21.49Z"/></clipPath><clipPath id="clippath-22"><path class="cls-1" d="M179.5,64.66l78.04,45.1,17.41-43.25c-43.3-20.67-85.8-23.34-85.8-23.34l-9.65,21.49Z"/></clipPath><clipPath id="clippath-23"><path class="cls-1" d="M83.91,90.75l13.78,19.1,78.08-45.03-28.76-36.71c-39.55,27.17-63.1,62.64-63.1,62.64"/></clipPath><clipPath id="clippath-24"><path class="cls-1" d="M83.91,90.75l13.78,19.1,78.08-45.03-28.76-36.71c-39.55,27.17-63.1,62.64-63.1,62.64"/></clipPath><clipPath id="clippath-25"><path class="cls-1" d="M83.91,90.75l13.78,19.1,78.08-45.03-28.76-36.71c-39.55,27.17-63.1,62.64-63.1,62.64"/></clipPath><clipPath id="clippath-26"><path class="cls-1" d="M83.91,90.75l13.78,19.1,78.08-45.03-28.76-36.71c-39.55,27.17-63.1,62.64-63.1,62.64"/></clipPath><clipPath id="clippath-27"><path class="cls-1" d="M83.91,90.75l13.78,19.1,78.08-45.03-28.76-36.71c-39.55,27.17-63.1,62.64-63.1,62.64"/></clipPath><clipPath id="clippath-28"><path class="cls-1" d="M83.91,90.75l13.78,19.1,78.08-45.03-28.76-36.71c-39.55,27.17-63.1,62.64-63.1,62.64"/></clipPath><clipPath id="clippath-29"><path class="cls-1" d="M83.91,90.75l13.78,19.1,78.08-45.03-28.76-36.71c-39.55,27.17-63.1,62.64-63.1,62.64"/></clipPath><clipPath id="clippath-30"><path class="cls-1" d="M83.91,90.75l13.78,19.1,78.08-45.03-28.76-36.71c-39.55,27.17-63.1,62.64-63.1,62.64"/></clipPath><clipPath id="clippath-31"><path class="cls-1" d="M83.91,90.75l13.78,19.1,78.08-45.03-28.76-36.71c-39.55,27.17-63.1,62.64-63.1,62.64"/></clipPath><clipPath id="clippath-32"><path class="cls-1" d="M83.91,90.75l13.78,19.1,78.08-45.03-28.76-36.71c-39.55,27.17-63.1,62.64-63.1,62.64"/></clipPath><clipPath id="clippath-33"><path class="cls-1" d="M83.91,90.75l13.78,19.1,78.08-45.03-28.76-36.71c-39.55,27.17-63.1,62.64-63.1,62.64"/></clipPath><clipPath id="clippath-34"><path class="cls-1" d="M83.91,90.75l13.78,19.1,78.08-45.03-28.76-36.71c-39.55,27.17-63.1,62.64-63.1,62.64"/></clipPath><clipPath id="clippath-35"><path class="cls-1" d="M83.91,90.75l13.78,19.1,78.08-45.03-28.76-36.71c-39.55,27.17-63.1,62.64-63.1,62.64"/></clipPath><clipPath id="clippath-36"><path class="cls-1" d="M83.91,90.75l13.78,19.1,78.08-45.03-28.76-36.71c-39.55,27.17-63.1,62.64-63.1,62.64"/></clipPath><clipPath id="clippath-37"><path class="cls-1" d="M83.91,90.75l13.78,19.1,78.08-45.03-28.76-36.71c-39.55,27.17-63.1,62.64-63.1,62.64"/></clipPath><clipPath id="clippath-38"><path class="cls-1" d="M83.91,90.75l13.78,19.1,78.08-45.03-28.76-36.71c-39.55,27.17-63.1,62.64-63.1,62.64"/></clipPath><clipPath id="clippath-39"><path class="cls-1" d="M83.91,90.75l13.78,19.1,78.08-45.03-28.76-36.71c-39.55,27.17-63.1,62.64-63.1,62.64"/></clipPath><clipPath id="clippath-40"><path class="cls-1" d="M83.91,90.75l13.78,19.1,78.08-45.03-28.76-36.71c-39.55,27.17-63.1,62.64-63.1,62.64"/></clipPath><clipPath id="clippath-41"><path class="cls-1" d="M83.91,90.75l13.78,19.1,78.08-45.03-28.76-36.71c-39.55,27.17-63.1,62.64-63.1,62.64"/></clipPath><clipPath id="clippath-42"><path class="cls-1" d="M83.91,90.75l13.78,19.1,78.08-45.03-28.76-36.71c-39.55,27.17-63.1,62.64-63.1,62.64"/></clipPath><clipPath id="clippath-43"><path class="cls-1" d="M83.91,90.75l13.78,19.1,78.08-45.03-28.76-36.71c-39.55,27.17-63.1,62.64-63.1,62.64"/></clipPath><clipPath id="clippath-44"><path class="cls-1" d="M83.91,90.75l13.78,19.1,78.08-45.03-28.76-36.71c-39.55,27.17-63.1,62.64-63.1,62.64"/></clipPath><clipPath id="clippath-45"><path class="cls-1" d="M83.91,90.75l13.78,19.1,78.08-45.03-28.76-36.71c-39.55,27.17-63.1,62.64-63.1,62.64"/></clipPath><clipPath id="clippath-46"><path class="cls-1" d="M83.91,90.75l13.78,19.1,78.08-45.03-28.76-36.71c-39.55,27.17-63.1,62.64-63.1,62.64"/></clipPath><clipPath id="clippath-47"><path class="cls-1" d="M83.91,90.75l13.78,19.1,78.08-45.03-28.76-36.71c-39.55,27.17-63.1,62.64-63.1,62.64"/></clipPath><clipPath id="clippath-48"><path class="cls-1" d="M83.91,90.75l13.78,19.1,78.08-45.03-28.76-36.71c-39.55,27.17-63.1,62.64-63.1,62.64"/></clipPath><clipPath id="clippath-49"><path class="cls-1" d="M83.91,90.75l13.78,19.1,78.08-45.03-28.76-36.71c-39.55,27.17-63.1,62.64-63.1,62.64"/></clipPath><clipPath id="clippath-50"><path class="cls-1" d="M83.91,90.75l13.78,19.1,78.08-45.03-28.76-36.71c-39.55,27.17-63.1,62.64-63.1,62.64"/></clipPath><clipPath id="clippath-51"><path class="cls-1" d="M83.91,90.75l13.78,19.1,78.08-45.03-28.76-36.71c-39.55,27.17-63.1,62.64-63.1,62.64"/></clipPath><clipPath id="clippath-52"><path class="cls-1" d="M83.91,90.75l13.78,19.1,78.08-45.03-28.76-36.71c-39.55,27.17-63.1,62.64-63.1,62.64"/></clipPath><clipPath id="clippath-53"><path class="cls-1" d="M83.91,90.75l13.78,19.1,78.08-45.03-28.76-36.71c-39.55,27.17-63.1,62.64-63.1,62.64"/></clipPath><clipPath id="clippath-54"><path class="cls-1" d="M83.91,90.75l13.78,19.1,78.08-45.03-28.76-36.71c-39.55,27.17-63.1,62.64-63.1,62.64"/></clipPath><clipPath id="clippath-55"><path class="cls-1" d="M83.91,90.75l13.78,19.1,78.08-45.03-28.76-36.71c-39.55,27.17-63.1,62.64-63.1,62.64"/></clipPath><clipPath id="clippath-56"><path class="cls-1" d="M83.91,90.75l13.78,19.1,78.08-45.03-28.76-36.71c-39.55,27.17-63.1,62.64-63.1,62.64"/></clipPath><clipPath id="clippath-57"><path class="cls-1" d="M83.91,90.75l13.78,19.1,78.08-45.03-28.76-36.71c-39.55,27.17-63.1,62.64-63.1,62.64"/></clipPath><clipPath id="clippath-58"><path class="cls-1" d="M83.91,90.75l13.78,19.1,78.08-45.03-28.76-36.71c-39.55,27.17-63.1,62.64-63.1,62.64"/></clipPath><clipPath id="clippath-59"><path class="cls-1" d="M83.91,90.75l13.78,19.1,78.08-45.03-28.76-36.71c-39.55,27.17-63.1,62.64-63.1,62.64"/></clipPath><clipPath id="clippath-60"><path class="cls-1" d="M83.91,90.75l13.78,19.1,78.08-45.03-28.76-36.71c-39.55,27.17-63.1,62.64-63.1,62.64"/></clipPath><clipPath id="clippath-61"><path class="cls-1" d="M83.91,90.75l13.78,19.1,78.08-45.03-28.76-36.71c-39.55,27.17-63.1,62.64-63.1,62.64"/></clipPath><clipPath id="clippath-62"><path class="cls-1" d="M83.91,90.75l13.78,19.1,78.08-45.03-28.76-36.71c-39.55,27.17-63.1,62.64-63.1,62.64"/></clipPath><clipPath id="clippath-63"><path class="cls-1" d="M83.91,90.75l13.78,19.1,78.08-45.03-28.76-36.71c-39.55,27.17-63.1,62.64-63.1,62.64"/></clipPath><clipPath id="clippath-64"><path class="cls-1" d="M83.91,90.75l13.78,19.1,78.08-45.03-28.76-36.71c-39.55,27.17-63.1,62.64-63.1,62.64"/></clipPath><clipPath id="clippath-65"><path class="cls-1" d="M83.91,90.75l13.78,19.1,78.08-45.03-28.76-36.71c-39.55,27.17-63.1,62.64-63.1,62.64"/></clipPath><clipPath id="clippath-66"><path class="cls-1" d="M83.91,90.75l13.78,19.1,78.08-45.03-28.76-36.71c-39.55,27.17-63.1,62.64-63.1,62.64"/></clipPath><clipPath id="clippath-67"><path class="cls-1" d="M83.91,90.75l13.78,19.1,78.08-45.03-28.76-36.71c-39.55,27.17-63.1,62.64-63.1,62.64"/></clipPath><clipPath id="clippath-68"><path class="cls-1" d="M83.91,90.75l13.78,19.1,78.08-45.03-28.76-36.71c-39.55,27.17-63.1,62.64-63.1,62.64"/></clipPath><clipPath id="clippath-69"><path class="cls-1" d="M83.91,90.75l13.78,19.1,78.08-45.03-28.76-36.71c-39.55,27.17-63.1,62.64-63.1,62.64"/></clipPath><clipPath id="clippath-70"><path class="cls-1" d="M83.91,90.75l13.78,19.1,78.08-45.03-28.76-36.71c-39.55,27.17-63.1,62.64-63.1,62.64"/></clipPath><clipPath id="clippath-71"><path class="cls-1" d="M83.91,90.75l13.78,19.1,78.08-45.03-28.76-36.71c-39.55,27.17-63.1,62.64-63.1,62.64"/></clipPath><clipPath id="clippath-72"><path class="cls-1" d="M83.91,90.75l13.78,19.1,78.08-45.03-28.76-36.71c-39.55,27.17-63.1,62.64-63.1,62.64"/></clipPath><clipPath id="clippath-73"><path class="cls-1" d="M83.91,90.75l13.78,19.1,78.08-45.03-28.76-36.71c-39.55,27.17-63.1,62.64-63.1,62.64"/></clipPath><clipPath id="clippath-74"><path class="cls-1" d="M83.91,90.75l13.78,19.1,78.08-45.03-28.76-36.71c-39.55,27.17-63.1,62.64-63.1,62.64"/></clipPath><clipPath id="clippath-75"><path class="cls-1" d="M83.91,90.75l13.78,19.1,78.08-45.03-28.76-36.71c-39.55,27.17-63.1,62.64-63.1,62.64"/></clipPath><clipPath id="clippath-76"><path class="cls-1" d="M83.91,90.75l13.78,19.1,78.08-45.03-28.76-36.71c-39.55,27.17-63.1,62.64-63.1,62.64"/></clipPath><clipPath id="clippath-77"><path class="cls-1" d="M83.91,90.75l13.78,19.1,78.08-45.03-28.76-36.71c-39.55,27.17-63.1,62.64-63.1,62.64"/></clipPath><clipPath id="clippath-78"><path class="cls-1" d="M83.91,90.75l13.78,19.1,78.08-45.03-28.76-36.71c-39.55,27.17-63.1,62.64-63.1,62.64"/></clipPath><clipPath id="clippath-79"><path class="cls-1" d="M83.91,90.75l13.78,19.1,78.08-45.03-28.76-36.71c-39.55,27.17-63.1,62.64-63.1,62.64"/></clipPath><clipPath id="clippath-80"><path class="cls-1" d="M83.91,90.75l13.78,19.1,78.08-45.03-28.76-36.71c-39.55,27.17-63.1,62.64-63.1,62.64"/></clipPath><clipPath id="clippath-81"><path class="cls-1" d="M83.91,90.75l13.78,19.1,78.08-45.03-28.76-36.71c-39.55,27.17-63.1,62.64-63.1,62.64"/></clipPath><clipPath id="clippath-82"><path class="cls-1" d="M83.91,90.75l13.78,19.1,78.08-45.03-28.76-36.71c-39.55,27.17-63.1,62.64-63.1,62.64"/></clipPath><clipPath id="clippath-83"><path class="cls-1" d="M49.81,119.72c3.75,47.83,22.69,85.97,22.69,85.97l23.44-2.39,.04-90.14-46.17,6.56Z"/></clipPath><clipPath id="clippath-84"><path class="cls-1" d="M49.81,119.72c3.75,47.83,22.69,85.97,22.69,85.97l23.44-2.39,.04-90.14-46.17,6.56Z"/></clipPath><clipPath id="clippath-85"><path class="cls-1" d="M49.81,119.72c3.75,47.83,22.69,85.97,22.69,85.97l23.44-2.39,.04-90.14-46.17,6.56Z"/></clipPath><clipPath id="clippath-86"><path class="cls-1" d="M49.81,119.72c3.75,47.83,22.69,85.97,22.69,85.97l23.44-2.39,.04-90.14-46.17,6.56Z"/></clipPath><clipPath id="clippath-87"><path class="cls-1" d="M49.81,119.72c3.75,47.83,22.69,85.97,22.69,85.97l23.44-2.39,.04-90.14-46.17,6.56Z"/></clipPath><clipPath id="clippath-88"><path class="cls-1" d="M49.81,119.72c3.75,47.83,22.69,85.97,22.69,85.97l23.44-2.39,.04-90.14-46.17,6.56Z"/></clipPath><clipPath id="clippath-89"><path class="cls-1" d="M49.81,119.72c3.75,47.83,22.69,85.97,22.69,85.97l23.44-2.39,.04-90.14-46.17,6.56Z"/></clipPath><clipPath id="clippath-90"><path class="cls-1" d="M49.81,119.72c3.75,47.83,22.69,85.97,22.69,85.97l23.44-2.39,.04-90.14-46.17,6.56Z"/></clipPath><clipPath id="clippath-91"><path class="cls-1" d="M49.81,119.72c3.75,47.83,22.69,85.97,22.69,85.97l23.44-2.39,.04-90.14-46.17,6.56Z"/></clipPath><clipPath id="clippath-92"><path class="cls-1" d="M49.81,119.72c3.75,47.83,22.69,85.97,22.69,85.97l23.44-2.39,.04-90.14-46.17,6.56Z"/></clipPath><clipPath id="clippath-93"><path class="cls-1" d="M49.81,119.72c3.75,47.83,22.69,85.97,22.69,85.97l23.44-2.39,.04-90.14-46.17,6.56Z"/></clipPath><clipPath id="clippath-94"><path class="cls-1" d="M49.81,119.72c3.75,47.83,22.69,85.97,22.69,85.97l23.44-2.39,.04-90.14-46.17,6.56Z"/></clipPath><clipPath id="clippath-95"><path class="cls-1" d="M49.81,119.72c3.75,47.83,22.69,85.97,22.69,85.97l23.44-2.39,.04-90.14-46.17,6.56Z"/></clipPath><clipPath id="clippath-96"><path class="cls-1" d="M49.81,119.72c3.75,47.83,22.69,85.97,22.69,85.97l23.44-2.39,.04-90.14-46.17,6.56Z"/></clipPath><clipPath id="clippath-97"><path class="cls-1" d="M49.81,119.72c3.75,47.83,22.69,85.97,22.69,85.97l23.44-2.39,.04-90.14-46.17,6.56Z"/></clipPath><clipPath id="clippath-98"><path class="cls-1" d="M49.81,119.72c3.75,47.83,22.69,85.97,22.69,85.97l23.44-2.39,.04-90.14-46.17,6.56Z"/></clipPath><clipPath id="clippath-99"><path class="cls-1" d="M49.81,119.72c3.75,47.83,22.69,85.97,22.69,85.97l23.44-2.39,.04-90.14-46.17,6.56Z"/></clipPath><clipPath id="clippath-100"><path class="cls-1" d="M49.81,119.72c3.75,47.83,22.69,85.97,22.69,85.97l23.44-2.39,.04-90.14-46.17,6.56Z"/></clipPath><clipPath id="clippath-101"><path class="cls-1" d="M259.56,112.92l-.04,87.4,44.76-6.35c-3.64-46.39-22-83.36-22-83.36l-22.72,2.31Z"/></clipPath><clipPath id="clippath-102"><path class="cls-1" d="M259.56,112.92l-.04,87.4,44.76-6.35c-3.64-46.39-22-83.36-22-83.36l-22.72,2.31Z"/></clipPath><clipPath id="clippath-103"><path class="cls-1" d="M259.56,112.92l-.04,87.4,44.76-6.35c-3.64-46.39-22-83.36-22-83.36l-22.72,2.31Z"/></clipPath><clipPath id="clippath-104"><path class="cls-1" d="M259.56,112.92l-.04,87.4,44.76-6.35c-3.64-46.39-22-83.36-22-83.36l-22.72,2.31Z"/></clipPath><clipPath id="clippath-105"><path class="cls-1" d="M259.56,112.92l-.04,87.4,44.76-6.35c-3.64-46.39-22-83.36-22-83.36l-22.72,2.31Z"/></clipPath><clipPath id="clippath-106"><path class="cls-1" d="M259.56,112.92l-.04,87.4,44.76-6.35c-3.64-46.39-22-83.36-22-83.36l-22.72,2.31Z"/></clipPath><clipPath id="clippath-107"><path class="cls-1" d="M259.56,112.92l-.04,87.4,44.76-6.35c-3.64-46.39-22-83.36-22-83.36l-22.72,2.31Z"/></clipPath><clipPath id="clippath-108"><path class="cls-1" d="M259.56,112.92l-.04,87.4,44.76-6.35c-3.64-46.39-22-83.36-22-83.36l-22.72,2.31Z"/></clipPath><clipPath id="clippath-109"><path class="cls-1" d="M259.56,112.92l-.04,87.4,44.76-6.35c-3.64-46.39-22-83.36-22-83.36l-22.72,2.31Z"/></clipPath><clipPath id="clippath-110"><path class="cls-1" d="M259.56,112.92l-.04,87.4,44.76-6.35c-3.64-46.39-22-83.36-22-83.36l-22.72,2.31Z"/></clipPath><clipPath id="clippath-111"><path class="cls-1" d="M259.56,112.92l-.04,87.4,44.76-6.35c-3.64-46.39-22-83.36-22-83.36l-22.72,2.31Z"/></clipPath><clipPath id="clippath-112"><path class="cls-1" d="M259.56,112.92l-.04,87.4,44.76-6.35c-3.64-46.39-22-83.36-22-83.36l-22.72,2.31Z"/></clipPath><clipPath id="clippath-113"><path class="cls-1" d="M259.56,112.92l-.04,87.4,44.76-6.35c-3.64-46.39-22-83.36-22-83.36l-22.72,2.31Z"/></clipPath><clipPath id="clippath-114"><path class="cls-1" d="M259.56,112.92l-.04,87.4,44.76-6.35c-3.64-46.39-22-83.36-22-83.36l-22.72,2.31Z"/></clipPath><clipPath id="clippath-115"><path class="cls-1" d="M259.56,112.92l-.04,87.4,44.76-6.35c-3.64-46.39-22-83.36-22-83.36l-22.72,2.31Z"/></clipPath><clipPath id="clippath-116"><path class="cls-1" d="M259.56,112.92l-.04,87.4,44.76-6.35c-3.64-46.39-22-83.36-22-83.36l-22.72,2.31Z"/></clipPath><clipPath id="clippath-117"><path class="cls-1" d="M179.63,248.66l28.76,36.71c39.55-27.17,63.11-62.63,63.11-62.63l-13.78-19.11-78.09,45.03Z"/></clipPath><clipPath id="clippath-118"><path class="cls-1" d="M179.63,248.66l28.76,36.71c39.55-27.17,63.11-62.63,63.11-62.63l-13.78-19.11-78.09,45.03Z"/></clipPath><clipPath id="clippath-119"><path class="cls-1" d="M179.63,248.66l28.76,36.71c39.55-27.17,63.11-62.63,63.11-62.63l-13.78-19.11-78.09,45.03Z"/></clipPath><clipPath id="clippath-120"><path class="cls-1" d="M179.63,248.66l28.76,36.71c39.55-27.17,63.11-62.63,63.11-62.63l-13.78-19.11-78.09,45.03Z"/></clipPath><clipPath id="clippath-122"><path class="cls-1" d="M179.63,248.66l28.76,36.71c39.55-27.17,63.11-62.63,63.11-62.63l-13.78-19.11-78.09,45.03Z"/></clipPath><clipPath id="clippath-123"><path class="cls-1" d="M82.09,249.66c43.14,19.13,84.99,20.59,84.99,20.59l8.9-21.38-77.96-42.21-15.93,43Z"/></clipPath><clipPath id="clippath-124"><path class="cls-1" d="M82.09,249.66c43.14,19.13,84.99,20.59,84.99,20.59l8.9-21.38-77.96-42.21-15.93,43Z"/></clipPath><clipPath id="clippath-125"><path class="cls-1" d="M82.09,249.66c43.14,19.13,84.99,20.59,84.99,20.59l8.9-21.38-77.96-42.21-15.93,43Z"/></clipPath><clipPath id="clippath-126"><path class="cls-1" d="M82.09,249.66c43.14,19.13,84.99,20.59,84.99,20.59l8.9-21.38-77.96-42.21-15.93,43Z"/></clipPath><clipPath id="clippath-127"><path class="cls-1" d="M82.09,249.66c43.14,19.13,84.99,20.59,84.99,20.59l8.9-21.38-77.96-42.21-15.93,43Z"/></clipPath><clipPath id="clippath-128"><path class="cls-1" d="M82.09,249.66c43.14,19.13,84.99,20.59,84.99,20.59l8.9-21.38-77.96-42.21-15.93,43Z"/></clipPath><clipPath id="clippath-129"><path class="cls-1" d="M82.09,249.66c43.14,19.13,84.99,20.59,84.99,20.59l8.9-21.38-77.96-42.21-15.93,43Z"/></clipPath><clipPath id="clippath-130"><path class="cls-1" d="M82.09,249.66c43.14,19.13,84.99,20.59,84.99,20.59l8.9-21.38-77.96-42.21-15.93,43Z"/></clipPath><clipPath id="clippath-131"><path class="cls-1" d="M82.09,249.66c43.14,19.13,84.99,20.59,84.99,20.59l8.9-21.38-77.96-42.21-15.93,43Z"/></clipPath><clipPath id="clippath-132"><path class="cls-1" d="M82.09,249.66c43.14,19.13,84.99,20.59,84.99,20.59l8.9-21.38-77.96-42.21-15.93,43Z"/></clipPath><clipPath id="clippath-133"><path class="cls-1" d="M82.09,249.66c43.14,19.13,84.99,20.59,84.99,20.59l8.9-21.38-77.96-42.21-15.93,43Z"/></clipPath><clipPath id="clippath-134"><path class="cls-1" d="M82.09,249.66c43.14,19.13,84.99,20.59,84.99,20.59l8.9-21.38-77.96-42.21-15.93,43Z"/></clipPath><clipPath id="clippath-135"><path class="cls-1" d="M82.09,249.66c43.14,19.13,84.99,20.59,84.99,20.59l8.9-21.38-77.96-42.21-15.93,43Z"/></clipPath><clipPath id="clippath-136"><path class="cls-1" d="M82.09,249.66c43.14,19.13,84.99,20.59,84.99,20.59l8.9-21.38-77.96-42.21-15.93,43Z"/></clipPath><clipPath id="clippath-137"><path class="cls-1" d="M82.09,249.66c43.14,19.13,84.99,20.59,84.99,20.59l8.9-21.38-77.96-42.21-15.93,43Z"/></clipPath><clipPath id="clippath-138"><path class="cls-1" d="M82.09,249.66c43.14,19.13,84.99,20.59,84.99,20.59l8.9-21.38-77.96-42.21-15.93,43Z"/></clipPath><clipPath id="clippath-139"><path class="cls-1" d="M82.09,249.66c43.14,19.13,84.99,20.59,84.99,20.59l8.9-21.38-77.96-42.21-15.93,43Z"/></clipPath><clipPath id="clippath-140"><path class="cls-1" d="M82.09,249.66c43.14,19.13,84.99,20.59,84.99,20.59l8.9-21.38-77.96-42.21-15.93,43Z"/></clipPath><clipPath id="clippath-141"><path class="cls-1" d="M82.09,249.66c43.14,19.13,84.99,20.59,84.99,20.59l8.9-21.38-77.96-42.21-15.93,43Z"/></clipPath><clipPath id="clippath-142"><path class="cls-1" d="M82.09,249.66c43.14,19.13,84.99,20.59,84.99,20.59l8.9-21.38-77.96-42.21-15.93,43Z"/></clipPath><clipPath id="clippath-143"><path class="cls-1" d="M82.09,249.66c43.14,19.13,84.99,20.59,84.99,20.59l8.9-21.38-77.96-42.21-15.93,43Z"/></clipPath><clipPath id="clippath-144"><path class="cls-1" d="M82.09,249.66c43.14,19.13,84.99,20.59,84.99,20.59l8.9-21.38-77.96-42.21-15.93,43Z"/></clipPath></defs><g id="Layer_1-2"><g><path class="cls-14" d="M306.89,77.98l-8.51,3.14,25.4,89.41,31.45-14.43c-17.61-46.13-48.34-78.12-48.34-78.12"/><path class="cls-4" d="M48.34,237.78l8.51-3.14-25.4-89.42L0,159.65c17.61,46.15,48.34,78.13,48.34,78.13"/><path class="cls-6" d="M172.66,5.67l-1.53,8.94,90.14,22.71,3.23-34.44c-48.77-7.83-91.84,2.79-91.84,2.79"/><path class="cls-12" d="M182.38,310.2l1.53-8.94-90.13-22.71-3.23,34.44c48.77,7.83,91.83-2.79,91.83-2.79"/><path class="cls-5" d="M42.6,87.12l6.98,5.8L114.32,26.21,86.1,6.19c-31.17,38.32-43.5,80.93-43.5,80.93"/><path class="cls-11" d="M311.84,230.33l-6.98-5.8-64.74,66.7,28.22,20.03c31.17-38.32,43.5-80.93,43.5-80.93"/><path class="cls-11" d="M134.62,161.47h-2.63v22.21h-12.5v-55.97c1.06-.05,2.28-.11,3.66-.16,1.11-.05,2.43-.11,3.94-.16,1.51-.05,3.12-.08,4.82-.08,2.87,0,5.6,.08,8.2,.24,2.6,.16,4.83,.45,6.69,.88,1.49,.37,2.95,.93,4.38,1.67,1.43,.74,2.71,1.71,3.82,2.91s2.02,2.61,2.71,4.26c.69,1.65,1.03,3.56,1.03,5.73,0,3.4-.61,6.17-1.83,8.32s-2.57,3.84-4.06,5.06c-1.75,1.43-3.69,2.52-5.81,3.26l18.39,24.05h-15.13l-15.68-22.22Zm8.4-24.84c-1.78-1.54-4.31-2.31-7.6-2.31-.64,0-1.17,.01-1.59,.04s-.77,.04-1.04,.04c-.32,.05-.58,.08-.8,.08v20.62c.16,.05,.37,.08,.64,.08h2.63c1.38,0,2.35-.03,2.91-.08s1.15-.16,1.79-.32c1.43-.37,2.75-1.37,3.94-2.99s1.79-4.02,1.79-7.21c0-3.76-.89-6.41-2.67-7.95"/><path class="cls-11" d="M200.19,179.94c-3.53,2.92-8.61,4.38-15.25,4.38-2.71,0-5.08-.13-7.13-.4-2.04-.26-3.78-.56-5.22-.88-1.7-.37-3.18-.8-4.46-1.27l2.79-8.28c.85,.48,1.88,.9,3.11,1.27,1.06,.32,2.32,.6,3.78,.84s3.14,.36,5.06,.36c3.24,0,5.76-.49,7.56-1.47s2.71-2.69,2.71-5.14c0-.8-.11-1.51-.32-2.15-.21-.64-.54-1.22-1-1.75-.45-.53-1.05-1.05-1.79-1.55-.74-.5-1.64-1.07-2.71-1.71l-7.48-4.3c-1.43-.85-2.77-1.74-4.02-2.67-1.25-.93-2.33-1.98-3.26-3.15-.93-1.17-1.65-2.48-2.15-3.94s-.76-3.14-.76-5.06c0-5.41,1.69-9.48,5.06-12.18,3.37-2.71,8.13-4.06,14.29-4.06,2.65,0,4.91,.12,6.77,.36s3.4,.49,4.62,.76c1.38,.32,2.57,.69,3.58,1.11l-2.71,8.36c-.8-.37-1.73-.72-2.79-1.04-.9-.27-2.02-.52-3.34-.76-1.33-.24-2.87-.36-4.62-.36-1.17,0-2.27,.09-3.3,.28-1.04,.19-1.95,.49-2.75,.92-.8,.42-1.42,.99-1.87,1.71-.45,.72-.68,1.63-.68,2.75,0,.85,.14,1.57,.44,2.15,.29,.58,.73,1.14,1.31,1.67s1.29,1.03,2.11,1.51c.82,.48,1.76,1.01,2.83,1.59l6.37,3.66c1.75,1.01,3.28,2.03,4.58,3.07s2.39,2.16,3.26,3.38c.88,1.22,1.54,2.57,1.99,4.06,.45,1.49,.68,3.18,.68,5.1,0,5.64-1.76,9.92-5.29,12.83"/><polygon class="cls-11" points="211.37 127.48 224.51 127.48 224.51 175.41 243.94 175.41 243.94 183.69 211.37 183.69 211.37 127.48"/><g><g class="cls-2"><path class="cls-13" d="M171.41,79.39c1.45,1.02,2.78,2.09,3.97,3.08l.73,.61c2.63,2.19,5.34,4.46,8.29,4.93,8.38,1.3,16.75-5.92,22.43-13.92-7.49-6-17.38-10.45-25.11-6.69-2.73,1.33-4.76,4.33-6.74,7.24l-.52,.77c-.78,1.16-1.95,2.65-3.05,3.98m-5.49,.93s3.88-4.47,5.59-6.98c2.27-3.32,4.8-7.36,8.71-9.26,10.61-5.16,23.47,2.05,31.44,9.28-5.82,9.33-16.34,20.09-27.86,18.31-4.24-.66-7.69-3.79-10.72-6.3-2.3-1.92-4.61-3.69-7.16-5.05"/></g><g class="cls-15"><path class="cls-13" d="M192.08,26.23c-.1,1.72-.24,3.61-.44,4.99l-.13,.92c-.51,3.48-1.04,7.07,.08,9.89,3.16,7.99,13.45,11.39,23.03,12.02,1.22-9.73-.08-20.72-7.14-25.42-2.48-1.64-6.01-1.8-9.43-1.96l-.96-.04c-1.56-.07-3.26-.18-5.01-.4m-3.43-4.39c2.8,.72,5.71,.97,8.68,1.12,3.93,.2,8.59,.22,12.16,2.59,9.7,6.46,10.19,21.5,8.19,32.32-10.76-.05-25.12-3.42-29.45-14.39-1.6-4.04-.73-8.73-.16-12.71,.42-3.02,.58-8.93,.58-8.93"/></g><g class="cls-18"><path class="cls-13" d="M246.65,66.51c7.49,6,17.38,10.45,25.1,6.69,2.73-1.33,4.77-4.34,6.74-7.24l.52-.77c.79-1.15,1.96-2.64,3.05-3.98-1.44-1.02-2.78-2.09-3.97-3.08l-.73-.61c-2.63-2.19-5.34-4.46-8.28-4.92-8.39-1.31-16.76,5.91-22.43,13.91m-4.83,.74c5.82-9.33,16.35-20.09,27.86-18.31,4.24,.66,7.69,3.79,10.72,6.3,2.29,1.9,4.6,3.68,7.16,5.04,0,0-3.88,4.47-5.59,6.98-2.27,3.32-4.8,7.36-8.71,9.26-10.6,5.17-23.46-2.05-31.44-9.27"/></g><g class="cls-17"><path class="cls-13" d="M238.86,86.54c-1.22,9.73,.08,20.72,7.14,25.42,2.48,1.65,6.01,1.8,9.43,1.96l.95,.04c1.55,.08,3.25,.19,5.01,.41,.1-1.72,.24-3.61,.44-4.99l.13-.92c.51-3.48,1.04-7.07-.08-9.89-3.14-8-13.44-11.4-23.02-12.03m-3.06-3.8c10.76,.05,25.12,3.42,29.45,14.39,1.6,4.04,.73,8.73,.16,12.71-.43,3.01-.59,8.92-.59,8.92-2.8-.72-5.71-.97-8.68-1.12-3.93-.19-8.59-.22-12.16-2.59-9.69-6.45-10.18-21.5-8.18-32.31"/></g><g class="cls-16"><path class="cls-13" d="M221.83,68.39l2.95,6.94,6.86-3.13-2.95-6.94-6.86,3.13Zm-4.75-1.84l13.51-6.16,5.81,13.67-13.51,6.16-5.81-13.67Z"/></g><g class="cls-22"><path class="cls-13" d="M252.08,48.31c2.13,.83,4.55-.27,5.39-2.46,.85-2.19-.19-4.63-2.32-5.46s-4.55,.27-5.4,2.46c-.84,2.19,.2,4.63,2.33,5.46"/></g><g class="cls-21"><polygon class="cls-13" points="236.78 43.65 243.32 40.67 240.51 34.05 233.96 37.04 236.78 43.65"/></g><g class="cls-19"><polygon class="cls-13" points="223.58 33.38 232.72 54.91 254.01 45.2 253.23 43.5 233.69 52.41 225.3 32.64 223.58 33.38"/></g><g class="cls-20"><path class="cls-13" d="M222.9,36.97c2.13,.83,4.55-.27,5.39-2.46,.85-2.19-.19-4.63-2.32-5.46s-4.55,.27-5.4,2.46c-.84,2.19,.2,4.63,2.33,5.46"/></g><g class="cls-23"><path class="cls-13" d="M231.67,57.62c2.13,.83,4.55-.27,5.39-2.46,.85-2.19-.19-4.63-2.32-5.46s-4.55,.27-5.4,2.46c-.84,2.19,.2,4.63,2.33,5.46"/></g><g class="cls-107"><polygon class="cls-13" points="236.78 43.65 243.32 40.67 240.51 34.05 233.96 37.04 236.78 43.65"/></g><g class="cls-112"><path class="cls-13" d="M222.9,36.97c2.13,.83,4.55-.27,5.39-2.46,.85-2.19-.19-4.63-2.32-5.46s-4.55,.27-5.4,2.46c-.84,2.19,.2,4.63,2.33,5.46"/></g><g class="cls-106"><path class="cls-13" d="M231.67,57.62c2.13,.83,4.55-.27,5.39-2.46,.85-2.19-.19-4.63-2.32-5.46s-4.55,.27-5.4,2.46c-.84,2.19,.2,4.63,2.33,5.46"/></g><g class="cls-105"><path class="cls-13" d="M201.4,92.29c-2.13-.83-4.55,.27-5.39,2.46-.85,2.19,.19,4.63,2.32,5.46s4.55-.27,5.4-2.46c.84-2.19-.2-4.63-2.33-5.46"/></g><g class="cls-104"><polygon class="cls-13" points="216.7 96.95 210.16 99.93 212.97 106.55 219.52 103.56 216.7 96.95"/></g><g class="cls-108"><polygon class="cls-13" points="229.9 107.22 220.76 85.69 199.47 95.4 200.25 97.1 219.79 88.19 228.18 107.95 229.9 107.22"/></g><g class="cls-110"><path class="cls-13" d="M230.58,103.63c-2.13-.83-4.55,.27-5.39,2.46-.85,2.19,.19,4.63,2.32,5.46s4.55-.27,5.4-2.46c.84-2.19-.2-4.63-2.33-5.46"/></g><g class="cls-109"><path class="cls-13" d="M221.81,82.98c-2.13-.83-4.55,.27-5.39,2.46-.85,2.19,.19,4.63,2.32,5.46s4.55-.27,5.4-2.46c.84-2.19-.2-4.63-2.33-5.46"/></g><g class="cls-113"><polygon class="cls-13" points="216.7 96.95 210.16 99.93 212.97 106.55 219.52 103.56 216.7 96.95"/></g><g class="cls-111"><path class="cls-13" d="M230.58,103.63c-2.13-.83-4.55,.27-5.39,2.46-.85,2.19,.19,4.63,2.32,5.46s4.55-.27,5.4-2.46c.84-2.19-.2-4.63-2.33-5.46"/></g><g class="cls-26"><path class="cls-13" d="M221.81,82.98c-2.13-.83-4.55,.27-5.39,2.46-.85,2.19,.19,4.63,2.32,5.46s4.55-.27,5.4-2.46c.84-2.19-.2-4.63-2.33-5.46"/></g><g class="cls-27"><path class="cls-13" d="M274.74,107.09h1.02c-.01-5.96-.88-13.92-4.43-20.31l-.89,.5,.32,.97c6.93-2.31,12.95-7.59,16.98-11.99l-.75-.69h-1.02c.01,5.96,.88,13.92,4.43,20.31l.89-.5-.32-.97c-6.93,2.31-12.95,7.59-16.98,11.99l.75,.69h0l.75,.69c3.89-4.25,9.74-9.32,16.12-11.43l1.17-.39-.6-1.08c-3.29-5.86-4.18-13.55-4.17-19.31v-2.63l-1.77,1.94c-3.89,4.25-9.74,9.32-16.12,11.43l-1.17,.39,.6,1.08c3.29,5.86,4.18,13.55,4.17,19.31v2.63l1.77-1.94-.75-.69Z"/></g><g class="cls-30"><path class="cls-13" d="M166.49,65.02h1.02c-.01-5.96-.88-13.92-4.43-20.31l-.89,.5,.32,.97c6.93-2.31,12.95-7.59,16.98-11.99l-.75-.69h-1.02c.01,5.96,.88,13.92,4.43,20.31l.89-.5-.32-.97c-6.93,2.31-12.95,7.59-16.98,11.99l.75,.69h0l.75,.69c3.89-4.25,9.74-9.32,16.12-11.43l1.17-.39-.6-1.08c-3.29-5.86-4.18-13.55-4.17-19.31v-2.63l-1.78,1.94c-3.89,4.25-9.74,9.32-16.12,11.43l-1.17,.39,.6,1.08c3.29,5.86,4.18,13.55,4.17,19.31v2.63l1.77-1.94-.74-.69Z"/></g></g><path class="cls-13" d="M275.54,65.3c-43.57-20.79-87.5-22.66-87.6-22.67l-10.15,22.59,80.43,46.48,18.46-45.86-1.14-.54Zm-18.66,42.53l-75.65-43.72,8.77-19.52c6.3,.51,44.33,4.31,83.24,22.61l-16.36,40.63Z"/><g><g class="cls-29"><polygon class="cls-8" points="131.11 63.92 130.36 68.54 134.99 69.25 135.73 64.62 131.11 63.92"/></g><g class="cls-28"><polygon class="cls-7" points="131.11 63.92 130.9 63.89 130.12 68.72 135.17 69.49 135.98 64.44 130.93 63.68 130.9 63.89 131.11 63.92 131.07 64.13 135.49 64.8 134.82 69.01 130.61 68.37 131.32 63.96 131.11 63.92 131.07 64.13 131.11 63.92"/></g><g class="cls-31"><polygon class="cls-8" points="131.11 63.92 130.91 63.89 130.14 68.71 135.16 69.47 135.96 64.46 130.94 63.7 130.91 63.89 131.11 63.92 131.08 64.12 135.51 64.78 134.83 69.03 130.59 68.38 131.3 63.95 131.11 63.92 131.08 64.12 131.11 63.92"/></g><g class="cls-55"><polygon class="cls-7" points="131.11 63.92 131.14 63.71 130.95 63.68 130.74 63.65 129.9 68.88 135.33 69.71 136.2 64.28 130.77 63.46 130.7 63.86 130.67 64.07 131.07 64.13 131.11 63.92 130.9 63.89 130.87 64.08 130.84 64.29 135.27 64.96 134.66 68.79 130.83 68.2 131.54 63.78 131.14 63.71 130.93 63.68 130.87 64.08 131.29 64.15 131.32 63.96 131.35 63.75 131.14 63.71 131.11 63.92 130.9 63.89 130.87 64.08 131.29 64.15 131.32 63.96 131.11 63.92 131.07 64.13 131.26 64.16 131.3 63.95 131.09 63.92 130.34 68.56 135.01 69.27 135.75 64.61 131.11 63.91 131.08 64.12 131.29 64.15 131.32 63.96 131.35 63.75 130.95 63.68 130.91 63.89 131.12 63.93 131.15 63.73 130.94 63.7 130.91 63.91 135.71 64.64 134.98 69.23 130.38 68.53 131.12 63.93 130.91 63.89 130.88 64.1 131.07 64.13 131.11 63.92 130.9 63.89 131.11 63.92"/></g><g class="cls-53"><path class="cls-8" d="M159.2,74.07c1.34-.98,1.64-2.85,.67-4.18s-2.85-1.62-4.19-.64c-1.34,.98-1.64,2.85-.67,4.18,.98,1.33,2.85,1.62,4.19,.64"/></g><g class="cls-54"><path class="cls-7" d="M159.2,74.07l.13,.17c.87-.63,1.33-1.61,1.33-2.61,0-.65-.2-1.31-.61-1.87-.62-.85-1.59-1.31-2.58-1.31-.66,0-1.33,.2-1.9,.62-.87,.63-1.33,1.61-1.33,2.6,0,.65,.2,1.31,.61,1.88,.62,.85,1.59,1.31,2.58,1.31,.66,0,1.33-.2,1.9-.62l-.13-.17-.13-.17c-.5,.37-1.08,.54-1.65,.54-.86,0-1.7-.39-2.24-1.13-.36-.49-.53-1.06-.53-1.62,0-.86,.4-1.71,1.15-2.26,.5-.37,1.08-.54,1.65-.54,.86,0,1.7,.39,2.24,1.13,.36,.49,.53,1.06,.53,1.62,0,.86-.4,1.71-1.15,2.26l.13,.17Z"/></g><g class="cls-56"><path class="cls-8" d="M159.2,74.07l.11,.16c.86-.63,1.32-1.61,1.32-2.59,0-.65-.2-1.3-.61-1.86-.62-.85-1.59-1.3-2.57-1.3-.66,0-1.32,.2-1.89,.62-.86,.63-1.32,1.6-1.32,2.59,0,.65,.2,1.3,.61,1.86,.62,.85,1.59,1.3,2.57,1.3,.66,0,1.32-.2,1.89-.62l-.11-.16-.11-.16c-.5,.37-1.09,.55-1.66,.55-.86,0-1.71-.4-2.25-1.14-.36-.49-.53-1.07-.53-1.64,0-.87,.4-1.72,1.16-2.28,.5-.37,1.09-.55,1.66-.55,.86,0,1.71,.4,2.25,1.14,.36,.49,.53,1.07,.53,1.63,0,.87-.4,1.72-1.16,2.28l.11,.17Z"/></g><g class="cls-64"><path class="cls-7" d="M159.2,74.07l-.17,.13,.11,.16,.13,.17,.17-.13c.92-.67,1.41-1.71,1.41-2.76,0-.69-.21-1.39-.65-1.99-.66-.9-1.69-1.39-2.74-1.39-.7,0-1.41,.22-2.02,.66-.92,.67-1.41,1.71-1.41,2.76,0,.69,.21,1.39,.65,1.99,.66,.9,1.69,1.39,2.74,1.39,.7,0,1.41-.22,2.02-.66l.17-.13-.24-.33-.11-.16-.13-.17-.17,.13c-.47,.34-1.01,.5-1.54,.5-.8,0-1.58-.37-2.08-1.05-.33-.46-.49-.98-.49-1.51,0-.8,.37-1.59,1.07-2.11,.47-.34,1.01-.5,1.54-.5,.8,0,1.58,.37,2.08,1.05,.33,.46,.49,.98,.49,1.51,0,.8-.37,1.59-1.07,2.11l-.17,.13,.24,.33,.17-.13,.17-.13-.11-.16-.17,.13,.13,.17c.81-.6,1.25-1.52,1.25-2.45,0-.61-.19-1.23-.57-1.76-.58-.8-1.5-1.22-2.42-1.23-.62,0-1.25,.19-1.79,.59-.81,.59-1.25,1.52-1.25,2.45,0,.61,.19,1.23,.57,1.76,.58,.8,1.5,1.23,2.42,1.23,.62,0,1.25-.19,1.79-.59l-.13-.17-.17,.12,.11,.16,.12,.16,.17-.13-.12-.17c-.54,.39-1.16,.58-1.77,.58-.92,0-1.82-.42-2.4-1.21-.38-.53-.57-1.13-.57-1.74,0-.92,.43-1.83,1.23-2.42,.53-.39,1.16-.58,1.77-.58,.92,0,1.82,.42,2.39,1.21,.38,.53,.57,1.13,.57,1.74,0,.92-.43,1.83-1.23,2.42l.13,.17,.17-.13-.12-.16-.17,.14Z"/></g><g class="cls-66"><path class="cls-8" d="M137.4,44.22c1.34-.98,1.64-2.85,.67-4.18s-2.85-1.62-4.19-.64c-1.34,.98-1.64,2.85-.67,4.18,.97,1.33,2.85,1.62,4.19,.64"/></g><g class="cls-63"><path class="cls-7" d="M137.4,44.22l.13,.17c.86-.63,1.33-1.61,1.33-2.61,0-.65-.2-1.31-.61-1.87-.62-.85-1.59-1.3-2.58-1.3-.66,0-1.33,.2-1.9,.62-.87,.63-1.33,1.61-1.33,2.6,0,.65,.2,1.31,.61,1.87,.62,.85,1.59,1.31,2.58,1.31,.66,0,1.33-.2,1.9-.62l-.13-.17-.13-.17c-.5,.37-1.08,.54-1.65,.54-.86,0-1.7-.39-2.24-1.13-.36-.49-.53-1.06-.53-1.62,0-.86,.4-1.71,1.15-2.26,.5-.37,1.08-.54,1.65-.54,.86,0,1.7,.39,2.24,1.13,.36,.49,.53,1.06,.53,1.62,0,.86-.4,1.71-1.15,2.26l.13,.17Z"/></g><g class="cls-62"><path class="cls-8" d="M137.4,44.22l.11,.16c.86-.63,1.32-1.61,1.32-2.59,0-.65-.2-1.3-.61-1.86-.62-.85-1.59-1.3-2.57-1.3-.66,0-1.32,.2-1.89,.62-.86,.63-1.32,1.61-1.32,2.59,0,.65,.2,1.3,.61,1.86,.62,.85,1.59,1.3,2.57,1.3,.66,0,1.32-.2,1.89-.62l-.11-.16-.11-.16c-.5,.37-1.09,.55-1.67,.55-.86,0-1.71-.4-2.25-1.14-.36-.49-.53-1.07-.53-1.63,0-.87,.4-1.72,1.16-2.28,.5-.37,1.09-.55,1.67-.55,.86,0,1.71,.39,2.25,1.14,.36,.49,.53,1.07,.53,1.63,0,.87-.4,1.72-1.16,2.28l.11,.16Z"/></g><g class="cls-57"><path class="cls-7" d="M137.4,44.22l-.17,.13,.11,.16,.12,.17,.17-.12c.92-.67,1.41-1.71,1.41-2.76,0-.69-.21-1.39-.65-1.99-.66-.9-1.69-1.39-2.74-1.39-.7,0-1.41,.22-2.02,.66-.92,.67-1.41,1.71-1.41,2.76,0,.69,.21,1.39,.65,1.99,.66,.9,1.69,1.39,2.74,1.39,.7,0,1.41-.22,2.02-.66l.17-.13-.24-.33-.11-.16-.12-.17-.17,.12c-.47,.34-1.01,.5-1.54,.5-.8,0-1.58-.37-2.08-1.05-.33-.46-.49-.98-.49-1.51,0-.8,.37-1.59,1.07-2.11,.47-.34,1.01-.5,1.54-.5,.8,0,1.58,.36,2.08,1.05,.33,.46,.49,.98,.49,1.51,0,.8-.37,1.59-1.07,2.11l-.17,.12,.24,.33,.17-.12,.17-.13-.11-.16-.17,.13,.12,.17c.81-.59,1.25-1.52,1.25-2.45,0-.61-.19-1.23-.57-1.76-.58-.8-1.5-1.22-2.42-1.23-.62,0-1.25,.19-1.79,.59-.81,.59-1.25,1.52-1.25,2.45,0,.61,.19,1.23,.57,1.76,.58,.8,1.5,1.23,2.42,1.23,.62,0,1.25-.19,1.79-.59l-.13-.17-.17,.13,.12,.16,.11,.16,.17-.13-.13-.17c-.53,.39-1.16,.58-1.77,.58-.92,0-1.82-.42-2.39-1.21-.38-.52-.57-1.13-.57-1.74,0-.92,.43-1.83,1.23-2.42,.53-.39,1.16-.58,1.77-.58,.92,0,1.82,.42,2.39,1.21,.38,.53,.57,1.13,.57,1.74,0,.92-.43,1.83-1.23,2.42l.12,.17,.17-.13-.12-.16-.15,.13Z"/></g><g class="cls-58"><path class="cls-8" d="M149.98,57.92c1.34-.98,1.64-2.85,.67-4.18s-2.85-1.62-4.19-.64c-1.34,.98-1.64,2.85-.67,4.18,.97,1.33,2.84,1.62,4.19,.64"/></g><g class="cls-59"><path class="cls-7" d="M149.98,57.92l.13,.17c.87-.63,1.33-1.61,1.33-2.6,0-.65-.2-1.31-.61-1.87-.62-.85-1.59-1.31-2.58-1.31-.66,0-1.33,.2-1.9,.62-.87,.63-1.33,1.61-1.33,2.6,0,.65,.2,1.31,.61,1.87,.62,.85,1.59,1.31,2.58,1.31,.66,0,1.33-.2,1.91-.62l-.14-.17-.13-.17c-.5,.37-1.08,.54-1.66,.54-.86,0-1.7-.39-2.24-1.13-.36-.49-.53-1.06-.53-1.62,0-.86,.4-1.71,1.15-2.26,.5-.37,1.08-.54,1.65-.54,.86,0,1.7,.39,2.24,1.13,.36,.49,.53,1.06,.53,1.62,0,.86-.4,1.71-1.15,2.26l.14,.17Z"/></g><g class="cls-60"><path class="cls-8" d="M149.98,57.92l.11,.16c.86-.63,1.32-1.61,1.32-2.59,0-.65-.2-1.3-.61-1.86-.62-.85-1.59-1.3-2.57-1.3-.66,0-1.32,.2-1.89,.62-.86,.63-1.32,1.6-1.32,2.59,0,.65,.2,1.3,.61,1.86,.62,.85,1.59,1.3,2.57,1.3,.66,0,1.32-.2,1.89-.62l-.11-.16-.11-.16c-.5,.37-1.09,.55-1.67,.55-.86,0-1.71-.39-2.25-1.14-.36-.49-.53-1.06-.53-1.63,0-.87,.4-1.72,1.16-2.28,.5-.37,1.09-.55,1.67-.55,.86,0,1.71,.4,2.25,1.14,.36,.49,.53,1.07,.53,1.64,0,.87-.4,1.72-1.16,2.28l.11,.15Z"/></g><g class="cls-65"><path class="cls-7" d="M149.98,57.92l-.17,.13,.11,.16,.13,.17,.17-.13c.92-.67,1.41-1.71,1.41-2.76,0-.69-.21-1.39-.65-1.99-.66-.9-1.69-1.38-2.74-1.38-.7,0-1.41,.22-2.02,.66-.92,.67-1.41,1.71-1.41,2.76,0,.69,.21,1.39,.65,1.99,.66,.9,1.69,1.39,2.74,1.39,.7,0,1.41-.22,2.02-.66l.17-.12-.24-.33-.11-.16-.13-.17-.17,.13c-.47,.34-1.01,.5-1.54,.5-.8,0-1.58-.36-2.08-1.05-.33-.46-.49-.98-.49-1.51,0-.8,.37-1.59,1.07-2.11,.47-.34,1.01-.5,1.54-.5,.8,0,1.58,.36,2.08,1.05,.33,.46,.49,.98,.49,1.51,0,.8-.37,1.59-1.07,2.11l-.17,.13,.24,.33,.17-.15,.17-.13-.11-.16-.17,.13,.12,.17c.81-.59,1.25-1.52,1.25-2.45,0-.61-.19-1.23-.57-1.76-.58-.8-1.5-1.22-2.42-1.22-.62,0-1.25,.19-1.79,.59-.81,.59-1.25,1.52-1.25,2.45,0,.61,.19,1.23,.57,1.76,.58,.8,1.5,1.22,2.42,1.23,.62,0,1.25-.19,1.79-.59l-.13-.17-.17,.12,.11,.16,.11,.16,.17-.13-.13-.17c-.54,.39-1.16,.58-1.77,.58-.92,0-1.82-.42-2.39-1.21-.38-.53-.57-1.13-.57-1.74,0-.92,.43-1.83,1.23-2.42,.54-.39,1.16-.58,1.77-.58,.92,0,1.82,.42,2.39,1.21,.38,.52,.57,1.13,.57,1.74,0,.92-.43,1.83-1.23,2.42l.13,.17,.17-.13-.12-.16-.15,.13Z"/></g><g class="cls-61"><path class="cls-8" d="M124.29,54.02c1.34-.98,1.64-2.85,.67-4.18s-2.85-1.62-4.19-.64c-1.34,.98-1.64,2.85-.67,4.18,.97,1.33,2.85,1.62,4.19,.64"/></g><g class="cls-34"><path class="cls-7" d="M124.29,54.02l.13,.17c.87-.63,1.33-1.61,1.33-2.61,0-.65-.2-1.31-.61-1.87-.62-.85-1.59-1.31-2.58-1.31-.66,0-1.33,.2-1.9,.62-.87,.63-1.33,1.61-1.33,2.61,0,.65,.2,1.31,.61,1.87,.62,.85,1.59,1.3,2.58,1.3,.66,0,1.33-.2,1.91-.62l-.14-.16-.13-.17c-.5,.37-1.08,.54-1.65,.54-.86,0-1.7-.39-2.24-1.13-.36-.49-.53-1.06-.53-1.62,0-.86,.4-1.71,1.15-2.26,.5-.37,1.08-.54,1.65-.54,.86,0,1.7,.39,2.24,1.13,.36,.49,.53,1.06,.53,1.62,0,.86-.4,1.71-1.15,2.26l.13,.17Z"/></g><g class="cls-36"><path class="cls-8" d="M124.29,54.02l.11,.16c.86-.63,1.32-1.61,1.32-2.59,0-.65-.2-1.3-.61-1.86-.62-.85-1.59-1.3-2.57-1.3-.66,0-1.32,.2-1.89,.62-.86,.63-1.32,1.6-1.32,2.59,0,.65,.2,1.3,.61,1.86,.62,.85,1.59,1.3,2.57,1.3,.66,0,1.32-.2,1.89-.62l-.11-.16-.11-.16c-.5,.37-1.09,.55-1.66,.55-.86,0-1.71-.39-2.25-1.14-.36-.49-.53-1.06-.53-1.63,0-.87,.4-1.72,1.16-2.28,.5-.37,1.09-.55,1.66-.55,.86,0,1.71,.4,2.25,1.14,.36,.49,.53,1.07,.53,1.64,0,.87-.4,1.72-1.16,2.28l.11,.15Z"/></g><g class="cls-35"><path class="cls-7" d="M124.29,54.02l-.17,.13,.11,.16,.12,.17,.17-.12c.92-.67,1.41-1.71,1.41-2.76,0-.69-.21-1.39-.65-1.99-.66-.9-1.69-1.39-2.74-1.39-.7,0-1.41,.22-2.02,.66-.92,.67-1.41,1.71-1.41,2.76,0,.69,.21,1.39,.65,1.99,.66,.9,1.69,1.39,2.74,1.39,.7,0,1.41-.22,2.02-.66l.17-.13-.24-.33-.11-.16-.12-.17-.17,.12c-.47,.34-1.01,.5-1.54,.5-.8,0-1.58-.36-2.08-1.05-.33-.46-.49-.98-.49-1.51,0-.8,.37-1.59,1.07-2.11,.47-.34,1.01-.5,1.54-.5,.8,0,1.58,.37,2.08,1.05,.33,.46,.49,.98,.49,1.51,0,.8-.37,1.59-1.07,2.11l-.17,.13,.24,.33,.17-.13,.17-.13-.11-.16-.17,.13,.13,.17c.81-.59,1.25-1.52,1.25-2.45,0-.61-.19-1.23-.57-1.76-.58-.8-1.5-1.23-2.42-1.23-.62,0-1.25,.19-1.79,.59-.81,.59-1.25,1.52-1.25,2.45,0,.61,.19,1.23,.57,1.76,.58,.8,1.5,1.23,2.42,1.23,.62,0,1.25-.19,1.79-.59l-.13-.17-.17,.13,.12,.16,.11,.16,.17-.13-.13-.17c-.53,.39-1.16,.58-1.77,.58-.92,0-1.82-.42-2.39-1.21-.38-.53-.57-1.13-.57-1.74,0-.92,.43-1.83,1.23-2.42,.54-.39,1.16-.58,1.77-.58,.92,0,1.82,.42,2.4,1.21,.38,.52,.57,1.13,.57,1.74,0,.92-.43,1.83-1.23,2.42l.13,.17,.17-.13-.12-.16-.18,.13Z"/></g><g class="cls-38"><path class="cls-8" d="M145.88,83.58c1.34-.98,1.64-2.85,.67-4.18s-2.85-1.62-4.19-.64c-1.34,.98-1.64,2.85-.67,4.18,.97,1.33,2.85,1.61,4.19,.64"/></g><g class="cls-32"><path class="cls-7" d="M145.88,83.58l.13,.17c.87-.63,1.33-1.61,1.33-2.6,0-.65-.2-1.31-.61-1.87-.62-.85-1.59-1.31-2.58-1.31-.66,0-1.33,.2-1.9,.62-.87,.63-1.33,1.61-1.33,2.6,0,.65,.2,1.31,.61,1.87,.62,.85,1.59,1.31,2.58,1.31,.66,0,1.33-.2,1.91-.62l-.14-.17-.13-.17c-.5,.37-1.08,.54-1.65,.54-.86,0-1.7-.39-2.24-1.13-.36-.49-.53-1.06-.53-1.62,0-.86,.4-1.71,1.15-2.26,.5-.37,1.08-.54,1.65-.54,.86,0,1.7,.39,2.24,1.13,.36,.49,.53,1.06,.53,1.62,0,.86-.4,1.71-1.15,2.26l.13,.17Z"/></g><g class="cls-33"><path class="cls-8" d="M145.88,83.58l.11,.16c.86-.63,1.32-1.61,1.32-2.59,0-.65-.2-1.3-.61-1.86-.62-.85-1.59-1.3-2.57-1.3-.66,0-1.32,.2-1.89,.62-.86,.63-1.32,1.61-1.32,2.59,0,.65,.2,1.3,.61,1.86,.62,.85,1.59,1.3,2.57,1.3,.66,0,1.32-.2,1.89-.62l-.11-.16-.11-.16c-.5,.37-1.09,.54-1.67,.54-.86,0-1.71-.39-2.25-1.14-.36-.49-.53-1.07-.53-1.63,0-.87,.4-1.72,1.16-2.28,.5-.37,1.09-.55,1.67-.55,.86,0,1.71,.39,2.25,1.14,.36,.49,.53,1.07,.53,1.63,0,.87-.4,1.72-1.16,2.28l.11,.17Z"/></g><g class="cls-39"><path class="cls-7" d="M145.88,83.58l-.17,.13,.11,.16,.12,.17,.17-.12c.92-.67,1.41-1.71,1.41-2.76,0-.69-.21-1.39-.65-1.99-.66-.9-1.69-1.39-2.74-1.39-.7,0-1.41,.22-2.02,.66-.92,.67-1.41,1.71-1.41,2.76,0,.69,.21,1.39,.65,1.99,.66,.9,1.69,1.38,2.74,1.38,.7,0,1.41-.22,2.02-.66l.17-.13-.24-.33-.11-.16-.13-.17-.17,.13c-.47,.34-1.01,.5-1.54,.5-.8,0-1.58-.36-2.08-1.05-.33-.46-.49-.98-.49-1.51,0-.8,.37-1.59,1.07-2.11,.47-.34,1.01-.5,1.54-.5,.8,0,1.58,.36,2.08,1.05,.33,.46,.49,.98,.49,1.51,0,.8-.37,1.59-1.07,2.11l-.17,.13,.24,.33,.18-.13,.17-.13-.11-.16-.17,.13,.13,.17c.81-.59,1.25-1.52,1.25-2.45,0-.61-.19-1.23-.57-1.76-.58-.8-1.5-1.22-2.42-1.23-.62,0-1.25,.19-1.79,.59-.81,.59-1.25,1.52-1.25,2.45,0,.61,.19,1.23,.57,1.76,.58,.8,1.5,1.22,2.42,1.23,.62,0,1.25-.19,1.79-.59l-.13-.17-.17,.12,.11,.16,.11,.16,.17-.13-.13-.17c-.53,.39-1.16,.58-1.77,.58-.92,0-1.82-.42-2.39-1.21-.38-.53-.57-1.13-.57-1.74,0-.92,.43-1.83,1.23-2.42,.53-.39,1.16-.58,1.77-.58,.92,0,1.82,.42,2.39,1.21,.38,.52,.57,1.13,.57,1.74,0,.92-.43,1.83-1.23,2.42l.12,.17,.17-.13-.12-.16-.15,.14Z"/></g><g class="cls-37"><path class="cls-8" d="M120.19,79.68c1.34-.98,1.64-2.85,.67-4.18s-2.85-1.62-4.19-.64c-1.34,.98-1.64,2.85-.67,4.18,.97,1.33,2.85,1.62,4.19,.64"/></g><g class="cls-40"><path class="cls-7" d="M120.19,79.68l.13,.17c.87-.63,1.33-1.61,1.33-2.61,0-.65-.2-1.31-.61-1.87-.62-.85-1.59-1.31-2.58-1.31-.66,0-1.33,.2-1.9,.62-.87,.63-1.33,1.61-1.33,2.61,0,.65,.2,1.31,.61,1.87,.62,.85,1.59,1.31,2.58,1.31,.66,0,1.33-.2,1.9-.62l-.13-.17-.13-.17c-.5,.37-1.08,.54-1.65,.54-.86,0-1.7-.39-2.24-1.13-.36-.49-.53-1.06-.53-1.62,0-.86,.4-1.71,1.15-2.26,.5-.37,1.08-.54,1.65-.54,.86,0,1.7,.39,2.24,1.13,.36,.49,.53,1.06,.53,1.62,0,.86-.4,1.71-1.15,2.26l.13,.17Z"/></g><g class="cls-41"><path class="cls-8" d="M120.19,79.68l.11,.16c.86-.63,1.32-1.6,1.32-2.59,0-.65-.2-1.3-.61-1.86-.62-.85-1.59-1.3-2.57-1.3-.66,0-1.32,.2-1.89,.62-.86,.63-1.32,1.61-1.32,2.59,0,.65,.2,1.3,.61,1.87,.62,.85,1.59,1.3,2.57,1.3,.66,0,1.32-.2,1.89-.62l-.11-.17-.11-.16c-.5,.37-1.09,.55-1.66,.55-.86,0-1.71-.4-2.25-1.14-.36-.49-.53-1.07-.53-1.64,0-.87,.4-1.72,1.16-2.28,.5-.37,1.09-.55,1.66-.55,.86,0,1.71,.39,2.25,1.14,.36,.49,.53,1.06,.53,1.63,0,.87-.4,1.72-1.16,2.28l.11,.17Z"/></g><g class="cls-78"><path class="cls-7" d="M120.19,79.68l-.17,.13,.11,.16,.12,.17,.17-.12c.92-.67,1.41-1.71,1.41-2.76,0-.69-.21-1.39-.65-1.99-.66-.91-1.69-1.39-2.74-1.39-.7,0-1.41,.22-2.02,.66-.92,.67-1.41,1.71-1.41,2.76,0,.69,.21,1.39,.65,1.99,.66,.9,1.69,1.39,2.74,1.39,.7,0,1.41-.22,2.02-.66l.17-.13-.24-.33-.11-.16-.13-.17-.17,.13c-.47,.34-1.01,.5-1.54,.5-.8,0-1.58-.36-2.08-1.05-.33-.46-.49-.98-.49-1.51,0-.8,.37-1.59,1.07-2.1,.47-.34,1.01-.5,1.54-.5,.8,0,1.58,.36,2.08,1.05,.33,.46,.49,.98,.49,1.51,0,.8-.37,1.59-1.07,2.11l-.17,.13,.24,.33,.18-.15,.17-.13-.11-.16-.17,.13,.13,.17c.81-.59,1.25-1.52,1.25-2.45,0-.61-.19-1.23-.57-1.76-.58-.8-1.5-1.23-2.42-1.23-.62,0-1.25,.19-1.79,.59-.81,.59-1.25,1.52-1.25,2.45,0,.61,.19,1.23,.57,1.76,.58,.8,1.5,1.23,2.42,1.23,.62,0,1.25-.19,1.79-.59l-.13-.17-.17,.13,.12,.16,.11,.16,.17-.13-.13-.17c-.53,.39-1.16,.58-1.77,.58-.92,0-1.82-.42-2.4-1.21-.38-.53-.57-1.13-.57-1.74,0-.92,.43-1.83,1.23-2.42,.53-.39,1.15-.58,1.77-.58,.92,0,1.82,.42,2.4,1.21,.38,.52,.57,1.13,.57,1.74,0,.92-.43,1.83-1.23,2.42l.12,.17,.17-.13-.12-.16-.16,.13Z"/></g><g class="cls-79"><path class="cls-8" d="M100.12,76.67c1.34-.98,1.64-2.85,.67-4.18s-2.85-1.62-4.19-.64c-1.34,.98-1.64,2.85-.67,4.18,.97,1.34,2.85,1.62,4.19,.64"/></g><g class="cls-80"><path class="cls-7" d="M100.12,76.67l.13,.17c.86-.63,1.33-1.61,1.33-2.6,0-.65-.2-1.31-.61-1.87-.62-.85-1.59-1.31-2.58-1.31-.66,0-1.33,.2-1.91,.62-.87,.63-1.33,1.61-1.33,2.6,0,.65,.2,1.31,.61,1.87,.62,.85,1.59,1.31,2.58,1.31,.66,0,1.33-.2,1.91-.62l-.13-.17-.13-.17c-.5,.37-1.08,.54-1.65,.54-.86,0-1.7-.39-2.24-1.13-.36-.49-.53-1.06-.53-1.62,0-.86,.4-1.71,1.15-2.26,.5-.37,1.08-.54,1.66-.54,.86,0,1.7,.39,2.24,1.13,.36,.49,.53,1.06,.53,1.62,0,.86-.4,1.71-1.15,2.26l.12,.17Z"/></g><g class="cls-76"><path class="cls-8" d="M100.12,76.67l.11,.16c.86-.63,1.32-1.61,1.32-2.59,0-.65-.2-1.3-.61-1.86-.62-.85-1.59-1.3-2.57-1.3-.66,0-1.32,.2-1.89,.62-.86,.63-1.32,1.6-1.32,2.59,0,.65,.2,1.3,.61,1.86,.62,.85,1.59,1.3,2.57,1.3,.66,0,1.32-.2,1.89-.62l-.11-.16-.11-.16c-.5,.37-1.09,.55-1.67,.55-.86,0-1.71-.39-2.25-1.14-.36-.49-.53-1.06-.53-1.63,0-.87,.4-1.72,1.16-2.28,.5-.37,1.09-.55,1.67-.55,.86,0,1.71,.4,2.25,1.14,.36,.49,.53,1.07,.53,1.64,0,.87-.4,1.72-1.16,2.28l.11,.15Z"/></g><g class="cls-77"><path class="cls-7" d="M100.12,76.67l-.17,.13,.11,.16,.13,.17,.17-.13c.92-.67,1.41-1.71,1.41-2.76,0-.69-.21-1.39-.65-1.99-.66-.9-1.69-1.38-2.74-1.38-.7,0-1.41,.22-2.02,.66-.92,.67-1.41,1.71-1.41,2.76,0,.69,.21,1.39,.65,1.99,.66,.9,1.69,1.39,2.74,1.39,.7,0,1.41-.22,2.02-.66l.17-.13-.24-.33-.11-.16-.13-.17-.17,.13c-.47,.34-1.01,.51-1.54,.51-.8,0-1.58-.36-2.08-1.05-.33-.46-.49-.98-.49-1.51,0-.8,.37-1.59,1.07-2.11,.47-.34,1.01-.5,1.54-.5,.8,0,1.58,.36,2.08,1.05,.33,.46,.49,.98,.49,1.51,0,.8-.37,1.59-1.07,2.11l-.17,.12,.24,.33,.17-.14,.17-.13-.11-.16-.17,.13,.12,.17c.81-.59,1.25-1.52,1.25-2.45,0-.61-.19-1.23-.57-1.76-.58-.8-1.5-1.22-2.42-1.22-.62,0-1.25,.19-1.79,.59-.81,.59-1.25,1.52-1.25,2.45,0,.61,.19,1.23,.57,1.76,.58,.8,1.5,1.23,2.42,1.23,.62,0,1.25-.19,1.79-.59l-.13-.17-.17,.13,.12,.16,.11,.16,.17-.13-.13-.17c-.53,.39-1.16,.58-1.77,.58-.92,0-1.82-.42-2.39-1.21-.38-.53-.57-1.13-.57-1.74,0-.92,.43-1.83,1.23-2.42,.54-.39,1.16-.58,1.77-.58,.92,0,1.82,.42,2.39,1.21,.38,.52,.57,1.13,.57,1.74,0,.92-.43,1.83-1.23,2.42l.13,.17,.17-.13-.12-.16-.16,.12Z"/></g><g class="cls-81"><path class="cls-8" d="M116.62,101.17c1.34-.98,1.64-2.85,.67-4.18s-2.85-1.62-4.19-.64c-1.34,.98-1.64,2.85-.67,4.18,.98,1.33,2.85,1.62,4.19,.64"/></g><g class="cls-82"><path class="cls-7" d="M116.62,101.17l.13,.17c.87-.63,1.33-1.61,1.33-2.61,0-.65-.2-1.31-.61-1.87-.62-.85-1.59-1.3-2.58-1.3-.66,0-1.33,.2-1.9,.62-.87,.63-1.33,1.61-1.33,2.6,0,.65,.2,1.31,.61,1.88,.62,.85,1.59,1.31,2.58,1.31,.66,0,1.33-.2,1.9-.62l-.13-.18-.13-.17c-.5,.37-1.08,.54-1.65,.54-.86,0-1.7-.39-2.24-1.13-.36-.49-.53-1.06-.53-1.62,0-.86,.4-1.71,1.15-2.26,.5-.37,1.08-.54,1.65-.54,.86,0,1.7,.39,2.24,1.13,.36,.49,.53,1.06,.53,1.62,0,.86-.4,1.71-1.15,2.26l.13,.17Z"/></g><g class="cls-83"><path class="cls-8" d="M116.62,101.17l.11,.16c.86-.63,1.32-1.61,1.32-2.59,0-.65-.2-1.3-.61-1.86-.62-.85-1.59-1.3-2.57-1.3-.66,0-1.32,.2-1.89,.62-.86,.63-1.32,1.6-1.32,2.59,0,.65,.2,1.3,.61,1.86,.62,.85,1.59,1.3,2.57,1.3,.66,0,1.32-.2,1.89-.62l-.11-.16-.11-.16c-.5,.37-1.09,.55-1.66,.55-.86,0-1.71-.4-2.25-1.14-.36-.49-.53-1.07-.53-1.64,0-.87,.4-1.72,1.16-2.28,.5-.37,1.09-.55,1.66-.55,.86,0,1.71,.39,2.25,1.14,.36,.49,.53,1.07,.53,1.63,0,.87-.4,1.72-1.16,2.28l.11,.17Z"/></g><g class="cls-84"><path class="cls-7" d="M116.62,101.17l-.17,.13,.11,.16,.12,.17,.17-.12c.92-.67,1.41-1.71,1.41-2.76,0-.69-.21-1.39-.65-1.99-.66-.9-1.69-1.39-2.74-1.39-.7,0-1.41,.22-2.02,.66-.92,.67-1.41,1.71-1.41,2.76,0,.69,.21,1.39,.65,1.99,.66,.9,1.69,1.39,2.74,1.39,.7,0,1.41-.22,2.02-.66l.17-.13-.24-.33-.11-.16-.13-.17-.17,.13c-.47,.34-1.01,.5-1.54,.5-.8,0-1.58-.37-2.08-1.05-.33-.46-.49-.98-.49-1.51,0-.8,.37-1.59,1.07-2.11,.47-.34,1.01-.5,1.54-.5,.8,0,1.58,.36,2.08,1.05,.33,.46,.49,.98,.49,1.51,0,.8-.37,1.59-1.07,2.11l-.17,.13,.24,.33,.18-.14,.17-.13-.11-.16-.17,.13,.12,.17c.81-.59,1.25-1.52,1.25-2.45,0-.61-.19-1.23-.57-1.76-.59-.8-1.5-1.23-2.42-1.23-.62,0-1.25,.19-1.79,.59-.81,.59-1.25,1.52-1.25,2.45,0,.61,.19,1.23,.57,1.76,.59,.8,1.5,1.23,2.42,1.23,.62,0,1.25-.19,1.79-.59l-.13-.17-.17,.13,.12,.16,.11,.16,.17-.13-.13-.17c-.53,.39-1.16,.58-1.77,.58-.92,0-1.82-.42-2.39-1.21-.38-.53-.57-1.13-.57-1.74,0-.92,.43-1.83,1.23-2.42,.53-.39,1.16-.58,1.77-.58,.92,0,1.82,.42,2.4,1.21,.38,.53,.57,1.13,.57,1.74,0,.92-.43,1.83-1.23,2.42l.12,.17,.17-.13-.12-.16-.16,.13Z"/></g><g class="cls-92"><polygon class="cls-8" points="135.44 42.92 160.55 46.5 156.32 71.51 158.56 71.81 163.16 44.59 135.84 40.69 135.44 42.92"/></g><g class="cls-24"><polygon class="cls-7" points="135.44 42.92 135.41 43.13 160.3 46.68 156.08 71.69 158.74 72.04 163.41 44.41 135.66 40.46 135.19 43.1 135.41 43.13 135.44 42.92 135.65 42.96 136.01 40.93 162.91 44.77 158.39 71.57 156.57 71.33 160.79 46.32 135.47 42.71 135.44 42.92 135.65 42.96 135.44 42.92"/></g><g class="cls-86"><polygon class="cls-8" points="135.44 42.92 135.41 43.11 160.32 46.66 156.1 71.67 158.72 72.03 163.39 44.43 135.68 40.47 135.21 43.08 135.41 43.11 135.44 42.92 135.63 42.95 135.99 40.91 162.94 44.75 158.4 71.59 156.55 71.34 160.77 46.33 135.47 42.73 135.44 42.92 135.63 42.95 135.44 42.92"/></g><g class="cls-88"><polygon class="cls-7" points="135.44 42.92 135.23 42.89 135.2 43.08 135.17 43.29 160.08 46.84 155.85 71.85 158.9 72.26 163.63 44.25 135.5 40.24 134.97 43.26 135.38 43.32 135.59 43.35 135.65 42.95 135.44 42.92 135.4 43.13 135.6 43.16 135.8 43.2 136.17 41.15 162.69 44.93 158.23 71.35 156.79 71.16 161.02 46.15 135.29 42.49 135.23 42.89 135.2 43.09 135.6 43.16 135.67 42.74 135.48 42.71 135.26 42.67 135.23 42.89 135.44 42.92 135.4 43.13 135.6 43.16 135.67 42.74 135.48 42.71 135.44 42.92 135.65 42.95 135.68 42.76 135.47 42.73 135.44 42.94 160.53 46.51 156.3 71.52 158.58 71.83 163.18 44.58 135.82 40.67 135.42 42.92 135.63 42.95 135.67 42.74 135.48 42.71 135.26 42.67 135.2 43.08 135.41 43.11 135.44 42.9 135.24 42.87 135.21 43.08 135.42 43.12 135.85 40.71 163.14 44.61 158.55 71.79 156.34 71.49 160.57 46.48 135.44 42.9 135.41 43.11 135.62 43.14 135.65 42.95 135.44 42.92 135.4 43.13 135.44 42.92"/></g><g class="cls-94"><polygon class="cls-8" points="144.12 81.17 145.24 81.31 149.51 54.56 121.59 50.32 117.13 78.21 145.06 82.45 145.24 81.31 144.12 81.17 144.33 80.06 119.72 76.32 123.46 52.89 146.92 56.45 143 81.03 144.12 81.17 144.33 80.06 144.12 81.17"/></g><g class="cls-87"><polygon class="cls-7" points="144.12 81.17 144.09 81.38 145.42 81.54 149.75 54.38 121.41 50.08 116.89 78.39 145.23 82.69 145.48 81.12 144.37 80.98 144.58 79.88 119.97 76.14 123.64 53.13 146.68 56.63 142.75 81.21 144.29 81.4 144.54 80.09 144.12 80.02 143.87 81.35 144.09 81.38 144.12 81.17 144.33 81.21 144.54 80.09 144.12 80.02 143.95 80.93 143.24 80.84 147.16 56.27 123.29 52.65 119.48 76.5 144.08 80.23 143.87 81.35 145 81.49 144.88 82.21 117.38 78.04 121.76 50.56 149.27 54.74 145.06 81.07 144.15 80.96 144.12 81.17 144.33 81.21 144.12 81.17"/></g><g class="cls-93"><polygon class="cls-8" points="144.12 81.17 144.09 81.36 145.22 81.5 145.4 81.52 149.73 54.4 121.43 50.1 116.91 78.38 145.22 82.67 145.43 81.34 145.47 81.14 144.35 81 144.52 80.09 144.55 79.89 119.95 76.16 123.63 53.11 146.7 56.62 142.77 81.19 144.09 81.36 144.28 81.38 144.52 80.09 144.13 80.02 143.93 81.13 143.89 81.33 144.09 81.36 144.12 81.17 144.31 81.2 144.52 80.09 144.13 80.02 143.96 80.95 143.22 80.86 147.14 56.29 123.3 52.67 119.5 76.48 144.1 80.22 143.93 81.13 143.89 81.33 145.02 81.47 144.9 82.23 117.36 78.05 121.75 50.54 149.29 54.72 145.08 81.09 144.14 80.97 144.12 81.17 144.31 81.2 144.12 81.17"/></g><g class="cls-95"><polygon class="cls-7" points="144.12 81.17 143.91 81.14 143.88 81.33 143.86 81.54 145.19 81.71 145.38 81.73 145.58 81.76 149.98 54.22 121.25 49.86 116.67 78.55 145.39 82.91 145.64 81.37 145.67 81.17 145.71 80.96 144.6 80.82 144.73 80.13 144.76 79.93 144.8 79.72 120.19 75.98 123.8 53.35 146.45 56.79 142.53 81.38 144.07 81.57 144.25 81.59 144.45 81.62 144.76 79.92 144.17 79.81 143.96 79.77 143.72 81.09 143.68 81.3 143.64 81.52 144.07 81.57 144.28 81.6 144.33 81.19 144.12 81.17 144.08 81.37 144.27 81.41 144.48 81.45 144.76 79.92 144.17 79.81 143.96 79.77 143.79 80.72 143.47 80.68 147.39 56.11 123.13 52.43 119.26 76.66 143.85 80.39 143.72 81.09 143.68 81.3 143.64 81.52 144.77 81.66 144.72 81.99 117.6 77.87 121.93 50.79 149.05 54.9 144.9 80.86 144.17 80.76 143.96 80.74 143.91 81.14 143.88 81.34 144.27 81.41 144.35 80.99 144.16 80.96 143.94 80.92 143.91 81.14 144.12 81.17 144.08 81.37 144.27 81.41 144.35 80.99 144.16 80.96 144.12 81.17 144.33 81.19 144.35 81 144.14 80.97 144.12 81.18 145.26 81.33 149.53 54.55 121.57 50.3 117.11 78.23 145.07 82.47 145.26 81.29 143.92 81.12 143.89 81.33 144.1 81.37 144.14 81.17 144.35 80.04 119.74 76.31 123.48 52.91 146.9 56.47 142.98 81.04 144.13 81.19 144.3 80.27 144.48 80.3 144.52 80.09 144.31 80.05 144.1 81.16 144.31 81.2 144.35 80.99 144.16 80.96 143.94 80.92 143.88 81.33 144.09 81.36 144.12 81.15 143.92 81.12 143.89 81.33 144.1 81.37 144.14 81.17 144.3 80.27 144.48 80.3 144.52 80.09 144.31 80.05 144.07 81.34 144.28 81.38 144.3 81.17 144.12 81.15 143.02 81.01 146.94 56.44 123.45 52.87 119.7 76.34 144.52 80.1 144.55 79.89 144.35 79.85 144.31 80.05 144.1 81.18 145.44 81.35 145.47 81.14 145.26 81.1 145.22 81.3 145.04 82.43 117.15 78.2 121.6 50.34 149.49 54.58 145.19 81.49 145.4 81.52 145.43 81.31 145.24 81.29 144.12 81.15 144.09 81.36 144.3 81.39 144.33 81.19 144.12 81.17 144.08 81.37 144.12 81.17"/></g><g class="cls-90"><polygon class="cls-8" points="132.33 89.03 107.23 85.45 111.62 59.73 109.21 60.14 104.61 87.36 131.94 91.26 132.33 89.03"/></g><g class="cls-89"><polygon class="cls-7" points="132.33 89.03 132.36 88.82 107.47 85.27 111.88 59.47 109.03 59.96 104.37 87.54 132.11 91.49 132.58 88.85 132.36 88.82 132.33 89.03 132.12 88.99 131.77 91.02 104.86 87.18 109.4 60.33 111.36 59.99 106.98 85.63 132.3 89.24 132.33 89.03 132.12 88.99 132.33 89.03"/></g><g class="cls-25"><polygon class="cls-8" points="132.33 89.03 132.36 88.84 107.45 85.29 111.86 59.49 109.04 59.98 104.39 87.52 132.1 91.48 132.56 88.87 132.36 88.84 132.33 89.03 132.14 89 131.78 91.04 104.84 87.19 109.38 60.31 111.38 59.96 107 85.61 132.31 89.22 132.33 89.03 132.14 89 132.33 89.03"/></g><g class="cls-96"><polygon class="cls-7" points="132.33 89.03 132.54 89.06 132.57 88.87 132.6 88.66 107.7 85.11 112.12 59.23 108.86 59.79 104.14 87.7 132.27 91.71 132.81 88.69 132.39 88.63 132.18 88.6 132.12 89 132.33 89.03 132.37 88.82 132.18 88.79 131.97 88.75 131.61 90.8 105.08 87.02 109.56 60.49 111.12 60.22 106.76 85.79 132.49 89.46 132.54 89.06 132.57 88.86 132.18 88.79 132.1 89.21 132.3 89.24 132.51 89.28 132.54 89.06 132.33 89.03 132.37 88.82 132.18 88.79 132.1 89.21 132.3 89.24 132.33 89.03 132.12 89 132.1 89.19 132.31 89.22 132.34 89.01 107.25 85.44 111.64 59.7 109.2 60.13 104.59 87.37 131.95 91.28 132.35 89.03 132.14 89 132.1 89.21 132.3 89.24 132.51 89.28 132.57 88.87 132.36 88.84 132.33 89.05 132.53 89.08 132.56 88.87 132.35 88.83 131.92 91.24 104.63 87.34 109.23 60.16 111.6 59.75 107.21 85.47 132.33 89.05 132.36 88.84 132.15 88.81 132.12 89 132.33 89.03 132.37 88.82 132.33 89.03"/></g><g class="cls-100"><path class="cls-8" d="M103.27,114.93c1.34-.98,1.64-2.85,.67-4.18s-2.85-1.62-4.19-.64c-1.34,.98-1.64,2.85-.67,4.18,.97,1.33,2.85,1.62,4.19,.64"/></g><g class="cls-98"><path class="cls-7" d="M103.27,114.93l.13,.17c.87-.63,1.33-1.61,1.33-2.61,0-.65-.2-1.31-.61-1.87-.62-.85-1.59-1.3-2.58-1.3-.66,0-1.33,.2-1.9,.62-.87,.63-1.33,1.61-1.33,2.6,0,.65,.2,1.31,.61,1.87,.62,.85,1.59,1.31,2.58,1.31,.66,0,1.33-.2,1.9-.62l-.13-.17-.13-.17c-.5,.37-1.08,.54-1.65,.54-.86,0-1.7-.39-2.24-1.13-.36-.49-.53-1.06-.53-1.62,0-.86,.4-1.71,1.15-2.26,.5-.37,1.08-.54,1.65-.54,.86,0,1.7,.39,2.24,1.13,.36,.49,.53,1.06,.53,1.62,0,.86-.4,1.71-1.15,2.26l.13,.17Z"/></g><g class="cls-91"><path class="cls-8" d="M103.27,114.93l.11,.16c.86-.63,1.32-1.61,1.32-2.59,0-.65-.2-1.3-.61-1.86-.62-.85-1.59-1.3-2.57-1.3-.66,0-1.32,.2-1.9,.62-.86,.63-1.32,1.61-1.32,2.59,0,.65,.2,1.3,.61,1.86,.62,.85,1.59,1.3,2.57,1.3,.66,0,1.32-.2,1.89-.62l-.1-.16-.11-.16c-.5,.37-1.09,.54-1.67,.54-.86,0-1.71-.39-2.25-1.14-.36-.49-.53-1.06-.53-1.63,0-.87,.4-1.72,1.16-2.28,.5-.37,1.09-.55,1.67-.55,.86,0,1.71,.39,2.25,1.14,.36,.49,.53,1.07,.53,1.63,0,.87-.4,1.72-1.16,2.28l.11,.17Z"/></g><g class="cls-102"><path class="cls-7" d="M103.27,114.93l-.17,.13,.11,.16,.13,.17,.17-.13c.92-.67,1.41-1.71,1.41-2.76,0-.69-.21-1.39-.65-1.99-.66-.9-1.69-1.39-2.74-1.39-.7,0-1.41,.22-2.02,.66-.92,.67-1.41,1.71-1.41,2.76,0,.69,.21,1.39,.65,1.99,.66,.9,1.69,1.38,2.74,1.38,.7,0,1.41-.21,2.02-.66l.17-.12-.24-.33-.12-.16-.12-.17-.17,.12c-.47,.34-1.01,.5-1.54,.5-.8,0-1.58-.36-2.08-1.05-.33-.46-.49-.98-.49-1.51,0-.8,.37-1.59,1.07-2.11,.47-.34,1.01-.5,1.54-.5,.8,0,1.58,.36,2.08,1.05,.33,.46,.49,.98,.49,1.51,0,.8-.37,1.59-1.07,2.11l-.17,.13,.24,.33,.17-.12,.17-.13-.11-.16-.17,.13,.13,.17c.81-.59,1.25-1.52,1.25-2.45,0-.61-.19-1.23-.57-1.76-.58-.8-1.5-1.22-2.42-1.23-.62,0-1.25,.19-1.79,.59-.81,.59-1.25,1.52-1.25,2.45,0,.61,.19,1.23,.57,1.76,.58,.8,1.5,1.22,2.42,1.23,.62,0,1.25-.19,1.79-.59l-.12-.17-.17,.13,.12,.16,.11,.16,.17-.13-.13-.17c-.53,.39-1.16,.58-1.77,.58-.92,0-1.82-.42-2.39-1.21-.38-.52-.57-1.13-.57-1.74,0-.92,.43-1.83,1.23-2.42,.54-.39,1.16-.58,1.77-.58,.92,0,1.82,.42,2.39,1.21,.38,.53,.57,1.13,.57,1.74,0,.92-.43,1.83-1.23,2.42l.13,.17,.17-.12-.11-.16-.19,.12Z"/></g><g class="cls-97"><path class="cls-8" d="M81.46,85.08c1.34-.98,1.64-2.85,.67-4.18s-2.85-1.62-4.19-.64c-1.34,.98-1.64,2.85-.67,4.18,.98,1.33,2.85,1.62,4.19,.64"/></g><g class="cls-103"><path class="cls-7" d="M81.46,85.08l.13,.17c.86-.63,1.33-1.61,1.33-2.61,0-.65-.2-1.31-.61-1.87-.62-.85-1.59-1.31-2.58-1.31-.66,0-1.33,.2-1.9,.62-.87,.63-1.33,1.61-1.33,2.61,0,.65,.2,1.31,.61,1.87,.62,.85,1.59,1.31,2.58,1.31,.66,0,1.33-.2,1.9-.62l-.13-.17-.13-.17c-.5,.37-1.08,.54-1.65,.54-.86,0-1.7-.39-2.24-1.13-.36-.49-.53-1.06-.53-1.62,0-.86,.4-1.71,1.15-2.26,.5-.37,1.08-.54,1.65-.54,.86,0,1.7,.39,2.24,1.13,.36,.49,.53,1.06,.53,1.62,0,.86-.4,1.71-1.15,2.26l.13,.17Z"/></g><g class="cls-101"><path class="cls-8" d="M81.46,85.08l.11,.16c.86-.63,1.32-1.61,1.32-2.59,0-.65-.2-1.3-.61-1.86-.62-.85-1.59-1.3-2.57-1.3-.66,0-1.32,.2-1.89,.62-.86,.63-1.32,1.6-1.32,2.59,0,.65,.2,1.3,.61,1.86,.62,.85,1.59,1.3,2.57,1.3,.66,0,1.32-.2,1.89-.62l-.11-.16-.11-.16c-.5,.37-1.09,.55-1.67,.55-.86,0-1.71-.4-2.25-1.14-.36-.49-.53-1.07-.53-1.63,0-.87,.4-1.72,1.16-2.28,.5-.37,1.09-.54,1.66-.54,.86,0,1.71,.39,2.25,1.14,.36,.49,.53,1.07,.53,1.63,0,.87-.4,1.72-1.16,2.28l.12,.15Z"/></g><g class="cls-99"><path class="cls-7" d="M81.46,85.08l-.17,.13,.11,.16,.12,.17,.17-.12c.92-.67,1.41-1.71,1.41-2.76,0-.69-.21-1.39-.65-1.99-.66-.91-1.69-1.39-2.74-1.39-.7,0-1.41,.22-2.02,.66-.92,.67-1.41,1.71-1.41,2.76,0,.69,.21,1.39,.65,1.99,.66,.9,1.69,1.39,2.74,1.39,.7,0,1.41-.22,2.02-.66l.17-.13-.24-.33-.11-.16-.13-.17-.17,.13c-.47,.34-1.01,.5-1.54,.5-.8,0-1.58-.37-2.08-1.05-.33-.46-.49-.98-.49-1.51,0-.8,.37-1.59,1.07-2.11,.47-.34,1.01-.5,1.54-.5,.8,0,1.58,.36,2.08,1.05,.33,.46,.49,.98,.49,1.51,0,.8-.37,1.59-1.07,2.11l-.17,.13,.24,.33,.18-.14,.17-.13-.11-.16-.17,.13,.13,.17c.81-.59,1.25-1.52,1.25-2.45,0-.61-.19-1.23-.57-1.76-.59-.8-1.5-1.23-2.42-1.23-.62,0-1.25,.19-1.79,.59-.81,.59-1.25,1.52-1.25,2.45,0,.61,.19,1.23,.57,1.76,.58,.8,1.5,1.23,2.42,1.23,.62,0,1.25-.19,1.79-.59l-.13-.17-.17,.13,.12,.16,.11,.16,.17-.13-.13-.17c-.53,.39-1.16,.58-1.77,.58-.92,0-1.82-.42-2.39-1.21-.38-.52-.57-1.13-.57-1.74,0-.92,.43-1.83,1.23-2.42,.53-.39,1.16-.58,1.77-.58,.92,0,1.82,.42,2.39,1.21,.38,.53,.57,1.13,.57,1.74,0,.92-.43,1.83-1.23,2.42l.12,.17,.17-.13-.12-.16-.16,.13Z"/></g><g class="cls-85"><polygon class="cls-8" points="79.51 83.78 104.61 87.36 100.39 112.37 102.63 112.67 107.23 85.45 79.9 81.55 79.51 83.78"/></g><g class="cls-48"><polygon class="cls-7" points="79.51 83.78 79.48 83.99 104.37 87.54 100.14 112.55 102.8 112.9 107.47 85.27 79.73 81.32 79.3 83.74 79.51 83.78 79.51 83.57 79.48 83.99 79.51 83.78 79.51 83.99 79.68 83.99 80.07 81.79 106.98 85.63 102.45 112.43 100.63 112.19 104.86 87.18 79.54 83.57 79.51 83.78 79.51 83.99 79.51 83.78"/></g><g class="cls-45"><polygon class="cls-8" points="79.51 83.78 79.48 83.97 104.39 87.52 100.17 112.53 102.79 112.89 107.45 85.29 79.74 81.34 79.31 83.75 79.51 83.78 79.51 83.58 79.48 83.97 79.51 83.78 79.51 83.97 79.67 83.97 80.06 81.77 107 85.61 102.47 112.45 100.62 112.2 104.84 87.19 79.53 83.59 79.51 83.78 79.51 83.97 79.51 83.78"/></g><g class="cls-50"><polygon class="cls-7" points="79.51 83.78 79.3 83.75 79.27 83.94 79.24 84.15 104.14 87.7 99.92 112.71 102.96 113.12 107.7 85.11 79.57 81.1 79.07 83.92 79.47 83.99 79.72 84.03 79.72 83.58 79.72 83.37 79.51 83.37 79.31 83.37 79.27 83.96 79.69 84 79.72 83.81 79.51 83.78 79.29 83.78 79.29 83.97 79.29 84.19 79.51 84.19 79.67 84.19 79.85 84.19 80.23 82.01 106.76 85.79 102.29 112.21 100.86 112.02 105.08 87.02 79.35 83.35 79.3 83.75 79.29 83.76 79.29 83.97 79.72 83.97 79.72 83.78 79.3 83.75 79.51 83.78 79.29 83.78 79.29 83.97 79.72 83.97 79.72 83.79 79.74 83.62 79.53 83.59 79.5 83.8 104.59 87.37 100.37 112.38 102.64 112.69 107.25 85.44 79.89 81.53 79.46 83.94 79.67 83.97 79.67 83.76 79.51 83.76 79.51 83.97 79.72 83.97 79.72 83.78 79.3 83.75 79.27 83.94 79.48 83.97 79.69 83.99 79.72 83.6 79.51 83.58 79.51 83.8 79.51 83.58 79.29 83.58 79.29 83.78 79.51 83.78 79.54 83.57 79.35 83.54 79.31 83.75 79.52 83.78 79.92 81.57 107.21 85.47 102.61 112.65 100.41 112.35 104.63 87.34 79.51 83.76 79.48 83.97 79.69 84 79.72 83.81 79.51 83.78 79.29 83.78 79.51 83.78"/></g></g><path class="cls-8" d="M147.29,26.29l-1.04,.71c-39.79,27.34-63.38,64.45-63.43,64.53l14.49,20.09,80.47-46.4-30.49-38.93Zm-61.74,64.44c3.59-5.2,25.9-36.24,61.2-60.78l27.02,34.49-75.69,43.65-12.53-17.36Z"/><g><g class="cls-46"><path class="cls-12" d="M83.65,135.52l1.13-.16c-.9-6.54-3.78-12.11-6.41-16.06-2.64-3.95-5.05-6.28-5.09-6.32l-1.05-1.01-.74,1.26c-.04,.08-4.31,7.35-5.18,16.91-.22,2.45-.21,5.06,.15,7.73,.9,6.54,3.78,12.11,6.41,16.06,2.64,3.95,5.05,6.28,5.09,6.32l1.05,1.01,.74-1.26c.04-.08,4.31-7.35,5.18-16.91,.22-2.45,.21-5.06-.15-7.73l-1.13,.16-1.13,.16c.34,2.47,.35,4.91,.14,7.21-.4,4.49-1.63,8.5-2.75,11.38-.56,1.44-1.1,2.59-1.49,3.38-.2,.39-.36,.7-.47,.9l-.13,.23-.04,.07,.99,.58,.8-.82-.09-.09c-.98-.96-9.2-9.59-10.73-20.95-.34-2.48-.35-4.91-.14-7.21,.4-4.49,1.63-8.5,2.75-11.38,.56-1.44,1.1-2.59,1.49-3.38,.2-.39,.36-.7,.47-.9l.13-.23,.04-.07-.99-.58-.8,.82,.09,.09c.98,.96,9.2,9.59,10.73,20.95l1.13-.16Z"/></g><g class="cls-42"><path class="cls-12" d="M83.65,135.52l.03,.21,1.34-.19-.03-.21c-.91-6.59-3.8-12.18-6.45-16.15-2.65-3.96-5.07-6.31-5.12-6.35h0l-1.24-1.2-.87,1.49h0c-.17,.32-4.34,7.54-5.2,16.99-.1,1.06-.15,2.16-.15,3.27,0,1.47,.09,2.98,.3,4.51,.91,6.59,3.8,12.18,6.45,16.15,2.65,3.96,5.07,6.31,5.12,6.35h0l1.24,1.2,.87-1.49h0c.17-.32,4.34-7.53,5.2-16.99,.1-1.06,.15-2.16,.15-3.27,0-1.47-.09-2.98-.3-4.51l-.03-.21-1.34,.19-1.34,.19,.03,.21c.19,1.4,.28,2.78,.28,4.14,0,1.03-.05,2.04-.14,3.03-.4,4.46-1.62,8.46-2.74,11.32-.56,1.43-1.09,2.58-1.48,3.37-.19,.39-.35,.69-.46,.89h0l-.13,.23,.19,.1-.18-.11-.04,.07-.1,.18,1.31,.77,1.06-1.09-.24-.24c-.96-.94-9.15-9.56-10.67-20.83-.19-1.4-.28-2.78-.28-4.14,0-1.03,.05-2.04,.14-3.03,.4-4.46,1.62-8.46,2.74-11.32,.56-1.43,1.09-2.58,1.48-3.37,.2-.39,.35-.69,.46-.89h0l.13-.23-.19-.1,.18,.1,.04-.07,.1-.18-1.31-.77-1.06,1.09,.24,.24h0c.96,.94,9.15,9.56,10.67,20.83l.03,.21,1.35-.18-.04-.21-.03-.21-1.13,.16,.03,.21,.21-.03c-1.55-11.44-9.8-20.09-10.79-21.07h0l-.09-.09-.15,.15,.15,.15,.68-.7,.84,.49,.11-.18-.18-.11-.04,.07h0l-.13,.23h0c-.11,.21-.27,.51-.47,.91-.4,.79-.93,1.96-1.5,3.4-1.13,2.89-2.36,6.92-2.76,11.44-.09,1-.14,2.03-.14,3.07,0,1.37,.09,2.78,.28,4.19,1.55,11.44,9.8,20.09,10.79,21.07l.09,.09,.15-.15-.15-.15-.68,.7-.84-.49-.11,.18,.18,.1,.04-.07h0l.13-.23h0c.11-.2,.27-.51,.47-.91,.4-.8,.93-1.96,1.5-3.4,1.13-2.89,2.36-6.92,2.76-11.44,.09-1,.14-2.02,.14-3.07,0-1.37-.09-2.78-.28-4.19l-.21,.03,.03,.21,1.13-.16,1.13-.16-.03-.21-.21,.03c.21,1.51,.3,3,.3,4.45,0,1.1-.05,2.18-.15,3.24-.43,4.75-1.71,8.94-2.89,11.95-.59,1.5-1.15,2.71-1.57,3.55-.21,.42-.38,.74-.5,.97-.06,.11-.11,.2-.14,.26l-.06,.11,.19,.1-.18-.11-.6,1.02-.85-.82h0s-2.43-2.35-5.06-6.28c-2.62-3.93-5.48-9.47-6.38-15.97-.21-1.51-.3-3-.3-4.45,0-1.1,.05-2.18,.15-3.24,.43-4.75,1.71-8.94,2.89-11.95,.59-1.5,1.15-2.71,1.57-3.55,.21-.42,.38-.74,.5-.97,.06-.11,.11-.2,.14-.26l.06-.11-.19-.1,.18,.11,.6-1.03,.85,.83,.15-.15-.15,.15s2.43,2.35,5.06,6.29c2.62,3.93,5.48,9.47,6.38,15.97l.21-.03-.03-.21-1.13,.16,.03,.21Z"/></g><g class="cls-47"><path class="cls-12" d="M89.93,181.13l1.13-.16c-.9-6.54-3.78-12.11-6.41-16.06-2.64-3.95-5.05-6.28-5.09-6.32l-1.05-1.01-.74,1.26c-.04,.08-4.31,7.35-5.18,16.91-.22,2.45-.21,5.06,.15,7.73,.9,6.54,3.78,12.11,6.41,16.06,2.64,3.95,5.05,6.28,5.09,6.32l1.05,1.01,.74-1.26c.04-.08,4.31-7.35,5.18-16.91,.22-2.45,.21-5.06-.15-7.73l-1.13,.16-1.13,.16c.34,2.47,.35,4.91,.14,7.21-.4,4.49-1.63,8.5-2.75,11.38-.56,1.44-1.1,2.59-1.49,3.38-.2,.39-.36,.7-.47,.9l-.13,.23-.04,.07,.99,.58,.8-.82-.09-.09c-.97-.96-9.2-9.59-10.73-20.95-.34-2.48-.35-4.91-.14-7.21,.4-4.49,1.63-8.5,2.75-11.38,.56-1.44,1.1-2.59,1.49-3.38,.2-.4,.36-.7,.47-.9l.13-.23,.04-.07-.99-.58-.8,.82,.09,.09c.98,.96,9.2,9.59,10.73,20.95l1.13-.16Z"/></g><g class="cls-44"><path class="cls-12" d="M89.93,181.13l.03,.21,1.34-.19-.03-.21c-.91-6.59-3.8-12.18-6.45-16.15-2.65-3.96-5.07-6.31-5.12-6.35h0l-1.24-1.2-.87,1.49h0c-.17,.32-4.34,7.53-5.2,16.99-.1,1.06-.15,2.16-.15,3.27,0,1.47,.09,2.98,.3,4.51,.91,6.59,3.8,12.18,6.45,16.15,2.65,3.96,5.07,6.31,5.12,6.35h0l1.24,1.2,.87-1.49h0c.17-.32,4.34-7.54,5.2-16.99,.1-1.06,.15-2.16,.15-3.27,0-1.47-.09-2.98-.3-4.51l-.03-.21-1.34,.19-1.34,.19,.03,.21c.19,1.4,.28,2.78,.28,4.14,0,1.03-.05,2.04-.14,3.03-.4,4.46-1.62,8.46-2.74,11.32-.56,1.43-1.09,2.58-1.48,3.37-.19,.39-.35,.69-.46,.89h0l-.13,.23,.19,.1-.18-.11-.04,.07-.1,.18,1.31,.77,1.06-1.09-.24-.24c-.96-.94-9.15-9.56-10.67-20.83-.19-1.4-.28-2.78-.28-4.14,0-1.03,.05-2.04,.14-3.03,.4-4.46,1.62-8.46,2.74-11.32,.56-1.43,1.09-2.58,1.48-3.37,.2-.39,.35-.69,.46-.89h0l.13-.23-.19-.1,.18,.11,.04-.07,.1-.18-1.31-.77-1.06,1.09,.24,.24c.96,.94,9.15,9.56,10.67,20.83l.03,.21,1.35-.19-.04-.21-.03-.21-1.13,.16,.03,.21,.21-.03c-1.55-11.44-9.8-20.09-10.79-21.07l-.09-.09-.15,.15,.15,.15,.68-.7,.84,.49,.11-.18-.18-.11-.04,.07h0l-.13,.23h0c-.11,.21-.27,.51-.47,.91-.39,.8-.93,1.95-1.5,3.4-1.13,2.89-2.36,6.92-2.77,11.44-.09,1-.14,2.02-.14,3.07,0,1.37,.09,2.78,.28,4.2,1.55,11.44,9.8,20.09,10.79,21.07l.09,.09,.15-.15-.15-.15-.68,.7-.84-.49-.11,.18,.18,.1,.04-.07h0l.13-.23h0c.11-.2,.27-.51,.47-.91,.4-.8,.93-1.95,1.5-3.4,1.13-2.89,2.36-6.92,2.76-11.44,.09-1,.14-2.02,.14-3.07,0-1.37-.09-2.78-.28-4.19l-.21,.03,.03,.21,1.13-.16,1.13-.16-.03-.21-.21,.03c.21,1.51,.3,3,.3,4.45,0,1.1-.05,2.18-.15,3.23-.43,4.75-1.71,8.94-2.89,11.95-.59,1.5-1.15,2.71-1.57,3.55-.21,.42-.38,.74-.5,.97-.06,.11-.11,.2-.14,.26l-.06,.11,.19,.1-.18-.11-.6,1.02-.85-.82h0s-2.43-2.35-5.06-6.28c-2.62-3.93-5.48-9.47-6.38-15.97-.21-1.51-.3-3-.3-4.45,0-1.1,.05-2.18,.15-3.23,.43-4.75,1.71-8.94,2.89-11.95,.59-1.5,1.15-2.71,1.57-3.55,.21-.42,.38-.74,.5-.97,.06-.11,.11-.2,.14-.26l.06-.11-.19-.1,.18,.11,.6-1.03,.85,.82h0s2.43,2.35,5.06,6.28c2.62,3.93,5.48,9.47,6.38,15.97l.21-.03-.03-.21-1.13,.16,.04,.22Z"/></g><g class="cls-49"><path class="cls-12" d="M101.06,156.35l1.13-.16c-1.49-10.82-10.43-18.8-21.08-19.75-1.79-.16-3.64-.12-5.5,.13-11.15,1.54-19.45,10.42-20.4,20.96-.15,1.67-.12,3.39,.12,5.12,1.49,10.82,10.43,18.8,21.08,19.75,1.79,.16,3.64,.12,5.5-.13,11.15-1.54,19.45-10.42,20.4-20.96,.15-1.67,.12-3.39-.12-5.12l-1.13,.16-1.13,.16c.21,1.56,.25,3.1,.11,4.6-.85,9.46-8.33,17.51-18.43,18.9-1.69,.23-3.36,.27-4.98,.12-9.63-.87-17.68-8.08-19.01-17.78-.21-1.56-.25-3.1-.11-4.6,.85-9.46,8.33-17.51,18.43-18.9,1.69-.23,3.36-.27,4.98-.12,9.63,.87,17.68,8.08,19.01,17.78l1.13-.16Z"/></g><g class="cls-43"><path class="cls-12" d="M101.06,156.35l.03,.21,1.34-.19-.03-.21c-1.51-10.92-10.53-18.97-21.27-19.93-.72-.06-1.45-.1-2.18-.1-1.11,0-2.23,.08-3.37,.23-11.24,1.55-19.62,10.51-20.58,21.15-.06,.67-.09,1.35-.09,2.04,0,1.03,.07,2.08,.21,3.13,1.51,10.92,10.53,18.97,21.27,19.93,.72,.06,1.45,.1,2.18,.1,1.11,0,2.23-.08,3.36-.23,11.24-1.55,19.62-10.51,20.58-21.15,.06-.67,.09-1.35,.09-2.04,0-1.03-.07-2.08-.21-3.13l-.03-.21-1.34,.18-1.34,.19,.03,.21c.13,.93,.19,1.85,.19,2.76,0,.6-.03,1.2-.08,1.79-.84,9.36-8.24,17.33-18.25,18.71-1.01,.14-2.01,.21-3,.21-.65,0-1.3-.03-1.94-.09-9.54-.86-17.5-8-18.82-17.6-.13-.93-.19-1.85-.19-2.76,0-.6,.03-1.2,.08-1.79,.84-9.36,8.24-17.33,18.25-18.71,1.01-.14,2.01-.21,2.99-.21,.65,0,1.3,.03,1.94,.09,9.54,.86,17.5,8,18.82,17.6l.03,.21,1.34-.19v-.2l-.04-.21-1.13,.16,.03,.21,.21-.03c-1.35-9.81-9.48-17.09-19.2-17.97-.65-.06-1.31-.09-1.97-.09-1.01,0-2.03,.07-3.05,.21-10.2,1.4-17.75,9.53-18.61,19.09-.05,.61-.08,1.22-.08,1.83,0,.93,.06,1.87,.19,2.81,1.35,9.81,9.48,17.09,19.2,17.97,.65,.06,1.31,.09,1.97,.09,1.01,0,2.03-.07,3.05-.21,10.2-1.4,17.75-9.53,18.61-19.09,.05-.6,.08-1.21,.08-1.83,0-.93-.06-1.87-.19-2.82l-.21,.03,.03,.21,1.13-.16,1.13-.16-.03-.21-.21,.03c.14,1.03,.21,2.06,.21,3.07,0,.67-.03,1.34-.09,2-.94,10.44-9.17,19.24-20.22,20.77-1.11,.15-2.22,.23-3.31,.23-.72,0-1.44-.03-2.14-.1-10.55-.95-19.41-8.86-20.89-19.57-.14-1.03-.21-2.06-.21-3.07,0-.67,.03-1.34,.09-2,.94-10.44,9.17-19.24,20.22-20.77,1.11-.15,2.22-.23,3.31-.23,.72,0,1.43,.03,2.14,.1,10.55,.95,19.41,8.86,20.89,19.57l.21-.03-.03-.21-1.13,.16,.03,.22Z"/></g><g class="cls-52"><path class="cls-12" d="M95.55,137.86l1.13-.16c-1.31-9.48-9.14-16.47-18.46-17.3-1.57-.14-3.18-.11-4.81,.12-9.76,1.35-17.03,9.12-17.87,18.36-.13,1.47-.1,2.97,.11,4.48,1.31,9.48,9.14,16.47,18.46,17.3,1.57,.14,3.18,.11,4.81-.12,9.76-1.35,17.03-9.12,17.87-18.36,.13-1.47,.1-2.97-.11-4.48l-1.13,.16-1.13,.16c.19,1.34,.21,2.67,.1,3.96-.73,8.15-7.18,15.1-15.9,16.3-1.46,.2-2.9,.23-4.3,.1-8.31-.75-15.25-6.97-16.4-15.34-.19-1.34-.21-2.67-.1-3.96,.73-8.15,7.18-15.1,15.9-16.3,1.46-.2,2.9-.23,4.3-.1,8.31,.75,15.25,6.97,16.4,15.34l1.13-.16Z"/></g><g class="cls-73"><path class="cls-12" d="M95.55,137.86l.03,.21,1.34-.19-.03-.21c-1.32-9.58-9.24-16.64-18.65-17.49-.63-.06-1.27-.09-1.91-.09-.97,0-1.96,.07-2.95,.2-9.86,1.36-17.2,9.21-18.05,18.55-.05,.59-.08,1.19-.08,1.79,0,.91,.06,1.82,.19,2.74,1.32,9.58,9.24,16.64,18.65,17.49,.63,.06,1.27,.09,1.91,.09,.97,0,1.96-.07,2.95-.2,9.86-1.36,17.2-9.21,18.05-18.55,.05-.59,.08-1.19,.08-1.79,0-.91-.06-1.82-.19-2.74l-.03-.21-1.34,.18-1.34,.19,.03,.21c.11,.8,.16,1.59,.16,2.38,0,.52-.02,1.03-.07,1.54-.72,8.05-7.1,14.92-15.72,16.11-.87,.12-1.73,.18-2.58,.18-.56,0-1.12-.03-1.67-.07-8.22-.74-15.07-6.89-16.21-15.15-.11-.8-.16-1.59-.16-2.37,0-.52,.02-1.03,.07-1.54,.72-8.05,7.1-14.92,15.72-16.11,.87-.12,1.73-.18,2.58-.18,.56,0,1.12,.03,1.67,.07,8.22,.74,15.07,6.89,16.21,15.15l.03,.21,1.34-.18-.03-.22-.03-.21-1.13,.16,.03,.21,.21-.03c-1.16-8.47-8.19-14.76-16.59-15.52-.56-.05-1.13-.08-1.71-.08-.87,0-1.75,.06-2.64,.18-8.81,1.21-15.34,8.23-16.08,16.49-.05,.52-.07,1.05-.07,1.58,0,.8,.05,1.62,.17,2.43,1.16,8.47,8.19,14.76,16.59,15.52,.56,.05,1.13,.08,1.71,.08,.87,0,1.75-.06,2.64-.18,8.81-1.21,15.34-8.23,16.08-16.49,.05-.52,.07-1.05,.07-1.58,0-.8-.05-1.62-.17-2.43l-.21,.03,.03,.21,1.13-.16,1.13-.16-.03-.21-.21,.03c.12,.9,.18,1.8,.18,2.69,0,.59-.03,1.17-.08,1.75-.82,9.14-8.02,16.84-17.68,18.17-.97,.13-1.94,.2-2.89,.2-.63,0-1.25-.03-1.87-.08-9.23-.83-16.98-7.75-18.27-17.12-.12-.9-.19-1.8-.19-2.69,0-.59,.03-1.17,.08-1.75,.82-9.14,8.02-16.84,17.68-18.17,.97-.13,1.94-.2,2.89-.2,.63,0,1.25,.03,1.87,.08,9.23,.83,16.98,7.75,18.27,17.12l.21-.03-.03-.21-1.13,.16,.04,.21Z"/></g><g class="cls-71"><path class="cls-12" d="M100.73,175.43l1.13-.16c-1.31-9.48-9.14-16.47-18.46-17.3-1.57-.14-3.18-.11-4.81,.12-9.76,1.35-17.03,9.12-17.87,18.36-.13,1.47-.1,2.97,.11,4.48,1.31,9.48,9.14,16.47,18.46,17.3,1.57,.14,3.18,.11,4.81-.12,9.76-1.35,17.03-9.12,17.87-18.36,.13-1.47,.1-2.97-.11-4.48l-1.13,.16-1.13,.16c.19,1.34,.21,2.67,.1,3.96-.73,8.15-7.18,15.1-15.9,16.3-1.46,.2-2.9,.23-4.3,.1-8.31-.75-15.25-6.97-16.4-15.34-.18-1.34-.21-2.67-.1-3.96,.73-8.15,7.18-15.1,15.9-16.3,1.46-.2,2.9-.23,4.3-.1,8.31,.75,15.25,6.97,16.4,15.34l1.13-.16Z"/></g><g class="cls-74"><path class="cls-12" d="M100.73,175.43l.03,.21,1.34-.19-.03-.21c-1.32-9.58-9.24-16.64-18.65-17.49-.63-.06-1.27-.09-1.91-.09-.97,0-1.96,.07-2.95,.2-9.86,1.36-17.2,9.21-18.05,18.55-.05,.59-.08,1.19-.08,1.79,0,.91,.06,1.82,.19,2.74,1.32,9.58,9.24,16.64,18.65,17.49,.63,.06,1.27,.09,1.91,.09,.97,0,1.96-.07,2.95-.2,9.86-1.36,17.2-9.21,18.05-18.55,.05-.59,.08-1.19,.08-1.79,0-.91-.06-1.82-.19-2.74l-.03-.21-1.34,.18-1.34,.19,.03,.21c.11,.8,.16,1.59,.16,2.38,0,.52-.02,1.03-.07,1.54-.72,8.05-7.1,14.92-15.72,16.11-.87,.12-1.73,.18-2.58,.18-.56,0-1.12-.03-1.67-.07-8.22-.74-15.07-6.89-16.21-15.15-.11-.8-.16-1.59-.16-2.37,0-.52,.02-1.03,.07-1.54,.72-8.05,7.1-14.92,15.72-16.11,.87-.12,1.73-.18,2.58-.18,.56,0,1.12,.03,1.67,.08,8.22,.74,15.07,6.89,16.21,15.15l.03,.21,1.34-.19-.03-.22-.03-.21-1.13,.16,.03,.21,.21-.03c-1.16-8.47-8.19-14.76-16.59-15.52-.56-.05-1.13-.08-1.71-.08-.87,0-1.75,.06-2.64,.18-8.81,1.21-15.34,8.23-16.08,16.49-.05,.52-.07,1.05-.07,1.58,0,.8,.05,1.62,.17,2.43,1.16,8.47,8.19,14.76,16.59,15.52,.56,.05,1.13,.08,1.71,.08,.87,0,1.75-.06,2.64-.18,8.81-1.21,15.34-8.23,16.08-16.49,.05-.52,.07-1.05,.07-1.58,0-.8-.05-1.62-.17-2.43l-.21,.03,.03,.21,1.13-.16,1.13-.16-.03-.21-.21,.03c.12,.9,.18,1.8,.18,2.69,0,.59-.03,1.17-.08,1.75-.82,9.14-8.02,16.84-17.68,18.17-.97,.13-1.94,.2-2.89,.2-.63,0-1.25-.03-1.87-.08-9.23-.83-16.98-7.75-18.27-17.12-.12-.9-.19-1.8-.19-2.69,0-.59,.03-1.17,.08-1.75,.82-9.14,8.02-16.84,17.68-18.17,.97-.13,1.94-.2,2.89-.2,.63,0,1.25,.03,1.87,.08,9.23,.83,16.98,7.75,18.27,17.12l.21-.03-.03-.21-1.13,.16,.04,.21Z"/></g><g class="cls-69"><path class="cls-12" d="M50.2,119.42l.16,1.13,9.79-1.35-.16-1.13-.62-.96c-3.79,2.48-7.2,7.23-8.88,11.87l1.08,.38,1.13-.16-1.37-9.94-1.13,.16,.16,1.13-.16-1.13-1.13,.16,2.01,14.58,1.57-4.41c1.47-4.16,4.77-8.66,7.97-10.72l4.3-2.79-16.01,2.2,.16,1.13,1.13-.15Z"/></g><g class="cls-70"><path class="cls-12" d="M50.2,119.42l-.21,.03,.19,1.34,10.21-1.41-.19-1.39-.77-1.18-.18,.12c-3.84,2.52-7.27,7.29-8.96,11.97l-.07,.2,1.33,.47,1.4-.19-1.43-10.36-1.55,.21,.19,1.34,.42-.06-.18-1.34-1.55,.21,2.15,15.65,1.87-5.22c1.45-4.11,4.74-8.6,7.88-10.61l5.1-3.31-17.16,2.36,.21,1.55,1.34-.19-.04-.19-.21,.03,.21-.03-.03-.21-.92,.13-.1-.72,14.86-2.05-3.5,2.28c-3.26,2.1-6.56,6.62-8.05,10.83l-1.28,3.59-1.88-13.51,.71-.1,.13,.92,.42-.06-.13-.92,.71-.1,1.31,9.52-.87,.12-1.03-.37-.07,.2,.2,.07c1.66-4.6,5.06-9.32,8.79-11.76l-.12-.18-.18,.12,.6,.92,.12,.88-9.37,1.29-.16-1.13-.21,.03,.05,.21Z"/></g><g class="cls-67"><path class="cls-12" d="M95.68,113.26l-.04-1.14-15,.56,4.72,2.01c1.75,.74,3.64,2.07,5.36,3.69,1.72,1.63,3.26,3.56,4.35,5.48l2.31,4.07-.59-15.85-1.14,.04,.03,1.14-1.14,.04,.38,10.03,1.14-.04,.99-.57c-1.22-2.14-2.89-4.23-4.76-6.01-1.88-1.78-3.95-3.25-6.04-4.14l-.45,1.05,.04,1.14,9.88-.37-.04-1.13-1.14,.04,1.14-.04Z"/></g><g class="cls-72"><path class="cls-12" d="M95.68,113.26h.21l-.05-1.37-16.16,.61,5.59,2.38c1.71,.72,3.59,2.04,5.29,3.65,1.7,1.62,3.23,3.53,4.31,5.43l2.74,4.82-.63-16.93-1.57,.06,.04,1.14-.93,.03h-.21l.39,10.46,1.41-.05,1.22-.7-.1-.18c-1.23-2.16-2.91-4.26-4.8-6.06-1.89-1.79-3.98-3.28-6.1-4.18l-.19-.08-.55,1.29,.05,1.4,10.3-.39-.06-1.57-1.36,.05,.02,.42,1.36-.05v-.21l-.22,.03v-.21l-1.15,.04,.02,.42,.93-.03,.03,.72-9.45,.35-.03-.88,.43-1.01-.2-.08-.08,.19c2.06,.88,4.11,2.34,5.98,4.1,1.86,1.77,3.52,3.83,4.73,5.96l.18-.11-.1-.18-.95,.54-.88,.03-.36-9.61,.93-.03h.21l-.04-1.15,.72-.03,.55,14.77-1.89-3.31c-1.1-1.94-2.65-3.88-4.39-5.53-1.73-1.64-3.64-2.98-5.42-3.74l-3.85-1.63,13.84-.52,.04,.93h.2v0Z"/></g><g class="cls-75"><path class="cls-12" d="M62.77,208.11l.16,1.13,14.88-2.05-4.9-1.53c-1.81-.56-3.83-1.69-5.7-3.14s-3.6-3.22-4.87-5.02l-2.71-3.82,2.17,15.71,1.13-.16-.16-1.12,1.13-.16-1.37-9.94-1.13,.16-.93,.66c1.43,2.01,3.29,3.92,5.33,5.5,2.04,1.58,4.25,2.84,6.42,3.52l.34-1.09-.16-1.13-9.79,1.35,.16,1.13,1.13-.16-1.13,.16Z"/></g><g class="cls-51"><path class="cls-12" d="M62.77,208.11l-.21,.03,.19,1.34,16.03-2.21-5.81-1.81c-1.78-.55-3.78-1.67-5.63-3.11-1.86-1.44-3.57-3.19-4.83-4.97l-3.21-4.52,2.31,16.78,1.55-.21-.16-1.13,1.13-.16-1.43-10.36-1.4,.19-1.15,.81,.12,.17c1.44,2.03,3.32,3.95,5.38,5.55,2.06,1.59,4.29,2.87,6.49,3.56l.2,.06,.42-1.34-.19-1.39-10.21,1.41,.21,1.55,1.34-.18-.06-.42-1.34,.18,.03,.21,.23-.03,.03,.21,1.13-.16-.06-.42-.92,.13-.1-.71,9.37-1.29,.12,.88-.33,1.05,.2,.06,.06-.2c-2.13-.67-4.33-1.92-6.35-3.49s-3.88-3.47-5.29-5.46l-.17,.12,.12,.17,.89-.63,.87-.12,1.31,9.52-1.13,.16,.16,1.13-.71,.1-2.02-14.64,2.21,3.11c1.29,1.82,3.03,3.6,4.91,5.06,1.89,1.46,3.92,2.61,5.77,3.18l3.99,1.25-13.72,1.89-.13-.92-.21,.02,.03,.21-.03-.21Z"/></g><g class="cls-68"><path class="cls-12" d="M107.35,201.97l-.16-1.13-9.79,1.35,.16,1.13,.62,.96c3.79-2.48,7.2-7.23,8.88-11.87l-1.08-.38-1.13,.16,1.37,9.94,1.13-.16-.16-1.13,.16,1.13,1.13-.16-2.01-14.58-1.57,4.41c-1.47,4.16-4.77,8.66-7.97,10.72l-4.3,2.79,16.01-2.2-.16-1.13-1.13,.15Z"/></g><g class="cls-130"><path class="cls-12" d="M107.35,201.97l.21-.03-.19-1.34-10.21,1.41,.19,1.39,.77,1.18,.18-.12c3.84-2.52,7.27-7.29,8.96-11.97l.07-.2-1.33-.47-1.4,.19,1.43,10.36,1.55-.21-.19-1.34-.42,.06,.18,1.34,1.55-.21-2.16-15.65-1.86,5.23c-1.45,4.11-4.74,8.6-7.88,10.61l-5.1,3.31,17.16-2.36-.21-1.55-1.34,.19,.04,.18,.21-.03-.21,.03,.03,.21,.92-.13,.1,.71-14.86,2.05,3.5-2.28c3.26-2.1,6.56-6.62,8.05-10.83l1.28-3.59,1.86,13.51-.71,.1-.13-.92-.42,.06,.13,.92-.71,.1-1.31-9.52,.87-.12,1.03,.37,.07-.2-.2-.07c-1.66,4.6-5.06,9.32-8.79,11.76l.12,.18,.18-.12-.6-.92-.12-.88,9.37-1.29,.16,1.13,.21-.03-.03-.2Z"/></g></g><path class="cls-12" d="M48.37,118.57l.1,1.26c3.78,48.13,24.13,87.11,24.16,87.2l24.64-2.51,.04-92.9-48.94,6.95Zm46.22,83.52l-21.29,2.17c-2.7-5.71-18.43-40.55-22.04-83.39l43.37-6.16-.04,87.38Z"/><g><g class="cls-136"><path class="cls-10" d="M305.18,136.04c-.2-1.75-1.82-2.99-3.61-2.78-1.79,.21-3.08,1.79-2.88,3.54,.2,1.75,1.82,2.99,3.61,2.78,1.8-.21,3.08-1.79,2.88-3.54"/></g><g class="cls-131"><polygon class="cls-10" points="299.41 151.57 303.61 154.81 306.96 150.69 302.75 147.45 299.41 151.57"/></g><g class="cls-132"><path class="cls-10" d="M308.6,165.35c.2,1.75-1.08,3.33-2.88,3.54-1.79,.21-3.41-1.04-3.61-2.78-.2-1.75,1.08-3.33,2.88-3.54,1.79-.21,3.4,1.04,3.61,2.78"/></g><g class="cls-135"><path class="cls-10" d="M248.17,172.4c.2,1.75,1.82,2.99,3.61,2.78,1.79-.21,3.08-1.79,2.88-3.54-.2-1.75-1.82-2.99-3.61-2.78-1.8,.21-3.09,1.8-2.88,3.54"/></g><g class="cls-129"><polygon class="cls-10" points="253.94 156.88 249.73 153.64 246.38 157.76 250.59 161 253.94 156.88"/></g><g class="cls-138"><path class="cls-10" d="M244.75,143.1c-.2-1.75,1.08-3.33,2.88-3.54,1.79-.21,3.41,1.04,3.61,2.78,.2,1.75-1.08,3.33-2.88,3.54-1.79,.21-3.41-1.04-3.61-2.78"/></g><g class="cls-133"><polygon class="cls-10" points="304.44 166.92 306.27 164.55 290.73 152.58 303.1 137.37 300.77 135.48 286.47 153.08 304.44 166.92"/></g><g class="cls-137"><polygon class="cls-10" points="248.9 141.53 247.08 143.9 247.08 143.9 262.62 155.86 250.25 171.08 252.57 172.97 266.87 155.37 248.9 141.53"/></g><g class="cls-134"><path class="cls-10" d="M279.93,144.31c.08,.67,.17,1.35,.29,2.04l.4,2.39,1.96-1.43c5.77-4.22,9.94-9.4,12.46-15.18s3.39-12.16,2.62-18.74c-.07-.62-.16-1.25-.26-1.88l-.39-2.42-1.97,1.46c-5.48,4.05-9.67,9.06-12.28,14.78-2.62,5.71-3.63,12.14-2.83,18.98m14.83-29.75c.55,5.8-.27,11.33-2.46,16.36-2,4.58-5.14,8.76-9.46,12.37-.6-6.08,.34-11.7,2.63-16.74,2.05-4.49,5.19-8.53,9.29-11.99"/></g><g class="cls-122"><path class="cls-10" d="M269.34,148.84l2.25,.96-.17-2.45c-.05-.64-.11-1.26-.18-1.89-.77-6.59-3.08-12.59-6.86-17.64-3.79-5.05-9.04-9.12-15.62-11.91l-2.24-.94,.16,2.42c.05,.69,.11,1.37,.19,2.05,.8,6.84,3.26,12.86,7.12,17.83,3.85,4.99,9.08,8.89,15.35,11.57m-7.36-19.21c3.29,4.39,5.36,9.58,6.16,15.36-4.79-2.42-8.77-5.63-11.8-9.53-3.39-4.38-5.6-9.63-6.41-15.68,5.03,2.5,9.05,5.85,12.05,9.85"/></g><g class="cls-121"><path class="cls-10" d="M273.42,164.14c-.08-.67-.17-1.35-.29-2.04l-.4-2.39-1.96,1.43c-5.77,4.22-9.94,9.4-12.46,15.18s-3.39,12.16-2.62,18.74c.07,.63,.16,1.25,.26,1.88l.39,2.42,1.97-1.46c5.48-4.05,9.67-9.06,12.28-14.78,2.61-5.71,3.63-12.14,2.83-18.98m-14.83,29.75c-.55-5.8,.27-11.33,2.46-16.36,2-4.58,5.14-8.76,9.46-12.37,.6,6.08-.34,11.7-2.63,16.74-2.06,4.49-5.19,8.53-9.29,11.99"/></g><g class="cls-120"><path class="cls-10" d="M306.67,191.04c-.05-.69-.11-1.37-.19-2.05-.8-6.84-3.26-12.86-7.12-17.83-3.85-4.97-9.08-8.88-15.35-11.56l-2.25-.96,.17,2.44c.05,.64,.1,1.26,.18,1.89,.77,6.59,3.08,12.59,6.86,17.64,3.79,5.05,9.04,9.12,15.62,11.9l2.24,.95-.16-2.42Zm-15.31-12.22c-3.29-4.39-5.36-9.58-6.16-15.36,4.79,2.42,8.77,5.63,11.8,9.53,3.39,4.38,5.6,9.63,6.41,15.68-5.03-2.5-9.05-5.85-12.05-9.85"/></g><g class="cls-119"><path class="cls-10" d="M272.49,130.41l1.8,3.39,.97-3.71c1.74-6.65,4.56-12.93,8.3-18.62l2.2-3.35-3.86,1.09c-3.39,.96-6.82,1.63-10.27,2.03-3.46,.4-6.94,.53-10.41,.39l-3.99-.16,2.91,2.74c4.94,4.68,9.13,10.13,12.35,16.2m-.51-16.2c2.39-.28,4.77-.7,7.14-1.23-2.37,4.08-4.3,8.41-5.75,12.93-2.45-4.06-5.33-7.83-8.57-11.26,2.39-.02,4.79-.16,7.18-.44"/></g><g class="cls-124"><path class="cls-10" d="M280.86,178.04l-1.8-3.39-.97,3.71c-1.74,6.65-4.56,12.93-8.3,18.62l-2.2,3.35,3.86-1.09c3.39-.96,6.82-1.63,10.27-2.03,3.46-.4,6.94-.53,10.41-.39l3.99,.16-2.91-2.74c-4.95-4.68-9.13-10.13-12.35-16.2m.51,16.2c-2.39,.28-4.77,.7-7.14,1.23,2.37-4.08,4.3-8.41,5.75-12.93,2.45,4.06,5.33,7.83,8.57,11.26-2.4,.02-4.79,.16-7.18,.44"/></g><g class="cls-123"><path class="cls-10" d="M249.19,101.59l-.37,1.45c6.99,1.8,14.44,2.39,22.06,1.5,7.61-.89,14.72-3.17,21.11-6.53l3.43-1.8-3.75-.97c-6.99-1.8-14.44-2.39-22.06-1.5-7.61,.89-14.73,3.17-21.11,6.53l-3.43,1.8,3.75,.97,.37-1.45,.7,1.32c6.07-3.19,12.82-5.36,20.06-6.21,7.25-.85,14.33-.29,20.97,1.43l.37-1.45-.7-1.32c-6.07,3.19-12.82,5.36-20.06,6.21-7.25,.85-14.33,.29-20.97-1.43l-.37,1.45,.7,1.32-.7-1.32Z"/></g><g class="cls-125"><path class="cls-10" d="M262.05,211.76l-.37,1.45c6.99,1.8,14.44,2.39,22.06,1.5,7.61-.89,14.72-3.17,21.11-6.53l3.43-1.8-3.75-.97c-6.99-1.8-14.44-2.39-22.06-1.5-7.61,.89-14.73,3.17-21.11,6.53l-3.43,1.8,3.75,.97,.37-1.45,.7,1.32c6.07-3.19,12.82-5.36,20.06-6.21,7.25-.85,14.33-.29,20.97,1.43l.37-1.45-.7-1.32c-6.07,3.19-12.82,5.36-20.06,6.21-7.25,.85-14.33,.29-20.97-1.43l-.37,1.45,.7,1.32-.7-1.32Z"/></g></g><path class="cls-10" d="M305.62,193.86c-3.67-46.68-23.43-84.5-23.47-84.59l-23.93,2.43-.04,90.16,47.54-6.75-.1-1.25Zm-44.72-79.73l20.58-2.09c2.66,5.62,17.86,39.33,21.35,80.78l-41.97,5.96,.04-84.65Z"/><g><g class="cls-126"><path class="cls-9" d="M232.42,277.51c2.02-1.53,2.52-4.26,1.12-6.11s-4.17-2.11-6.18-.59c-2.02,1.53-2.52,4.26-1.12,6.11,1.4,1.85,4.17,2.11,6.18,.59"/></g><g class="cls-127"><path class="cls-9" d="M199.8,234.39c2.02-1.53,2.52-4.26,1.12-6.11s-4.17-2.11-6.18-.59c-2.02,1.53-2.52,4.26-1.12,6.11s4.16,2.11,6.18,.59"/></g><g class="cls-128"><polygon class="cls-9" points="251.22 227.88 249.88 235.2 257.29 235.91 258.63 228.58 251.22 227.88"/></g><g class="cls-153"><polygon class="cls-9" points="241.44 215.83 240.1 223.15 247.51 223.85 248.85 216.52 241.44 215.83"/></g><g class="cls-150"><path class="cls-9" d="M295.08,224.36l.69-3.31-35.98-3.42,6.5-35.55-3.37-.23-6.67,36.51-31.65,23.92,6.53-35.76-3.37-.23-6.93,37.96-12.27-1.16,5.76-31.54-3.37-.23-5.74,31.45-26.61-2.53-.69,3.31,26.7,2.54-2.21,12.12-42.24-4.01-.69,3.31,42.32,4.02-7.64,41.82,3.37,.23,7.62-41.74,12.27,1.17-4.82,26.38,3.37,.23,4.8-26.3,31.83,3.03,.69-3.31-31.92-3.04,2.22-12.12,38.42,3.65,.69-3.31-36.15-3.44,31.68-23.94,36.86,3.52Zm-77.18,22.99l-11.73,8.87,1.79-9.81,9.94,.94Zm-9.82,11.4l11.72-8.86-1.79,9.8-9.93-.94Z"/></g></g><path class="cls-9" d="M272.58,221.95l-14.49-20.09-80.48,46.41,30.49,38.92,1.04-.71c39.79-27.34,63.39-64.45,63.44-64.53l-2.21,.04-.06,.09c-1.36,2.03-24.61,36.02-62.69,62.17l.76,1.11,1.06-.83-27.8-35.49,75.69-43.65,13.07,18.12,2.18-1.56Z"/><g><g class="cls-154"><path class="cls-3" d="M167.32,281.32c1.52,.59,3.25-.2,3.86-1.76,.61-1.57-.14-3.31-1.66-3.9s-3.25,.2-3.86,1.76c-.61,1.56,.13,3.31,1.66,3.9"/></g><g class="cls-155"><path class="cls-3" d="M148.26,283.25c1.52,.59,3.25-.2,3.86-1.76s-.14-3.31-1.66-3.9-3.25,.2-3.86,1.76c-.6,1.56,.14,3.3,1.66,3.9"/></g><g class="cls-152"><polygon class="cls-3" points="167.35 234.06 182.04 239.77 179.37 246.65 181.81 247.6 185.42 238.28 168.3 231.63 167.35 234.06"/></g><g class="cls-151"><path class="cls-3" d="M179.49,249.96c1.52,.59,3.25-.2,3.86-1.76,.61-1.57-.14-3.31-1.66-3.9s-3.25,.2-3.86,1.76c-.61,1.56,.14,3.3,1.66,3.9"/></g><g class="cls-156"><path class="cls-3" d="M166.73,235.68c1.52,.59,3.25-.2,3.86-1.76s-.14-3.31-1.66-3.9-3.25,.2-3.86,1.76c-.61,1.56,.13,3.31,1.66,3.9"/></g><g class="cls-157"><path class="cls-3" d="M120.46,211.2c-1.52-.59-3.25,.2-3.86,1.76-.61,1.57,.14,3.31,1.66,3.9s3.25-.2,3.86-1.76c.61-1.56-.14-3.31-1.66-3.9"/></g><g class="cls-149"><path class="cls-3" d="M102,258.77c-1.52-.59-3.25,.2-3.86,1.76-.61,1.57,.14,3.31,1.66,3.9s3.25-.2,3.86-1.76c.6-1.56-.14-3.31-1.66-3.9"/></g><g class="cls-144"><polygon class="cls-3" points="140.7 230.9 145.38 228.77 143.36 224.03 138.68 226.17 140.7 230.9"/></g><g class="cls-148"><polygon class="cls-3" points="125.36 270.42 130.04 268.29 128.02 263.55 123.34 265.69 125.36 270.42"/></g><g class="cls-142"><path class="cls-3" d="M176.97,273.93l1.29,.21c.64-3.93,.3-7.77-1.01-11.29l-1.22,.46,.56,1.18c3.39-1.6,6.31-4.12,8.6-7.37l-1.07-.75-1.29-.21c-.64,3.93-.3,7.77,1.01,11.29l1.22-.46-.56-1.18c-3.39,1.6-6.31,4.12-8.6,7.37l1.07,.75,1.29,.21-1.29-.21,1.07,.75c2.06-2.92,4.62-5.11,7.58-6.52l1.08-.51-.42-1.12c-1.14-3.08-1.45-6.43-.88-9.96l.9-5.59-3.26,4.63c-2.06,2.92-4.62,5.11-7.58,6.52l-1.08,.51,.42,1.12c1.14,3.08,1.45,6.43,.88,9.96l-.9,5.59,3.26-4.63-1.07-.75Z"/></g><g class="cls-145"><path class="cls-3" d="M101.5,218.67c1.53,.58,3.25-.23,3.84-1.8,.42-1.12,.15-2.31-.59-3.12l1.64-4.37,12.54,4.71,.92-2.45-14.98-5.63-2.56,6.82c-1.09,.12-2.08,.84-2.5,1.96-.61,1.57,.16,3.31,1.69,3.88"/></g><g class="cls-146"><path class="cls-3" d="M101.5,218.67l-.07,.2c.36,.13,.73,.2,1.09,.2,1.3,0,2.53-.82,3.02-2.13,.14-.38,.21-.77,.21-1.15,0-.82-.31-1.6-.85-2.18l-.16,.14,.2,.07,1.57-4.17,12.54,4.71,.99-2.65-.2-.07h0l.07-.2-15.18-5.71-2.64,7.02,.2,.07-.02-.21c-1.17,.13-2.23,.9-2.68,2.1-.14,.38-.21,.78-.21,1.17,0,1.3,.77,2.52,2.04,2.99l.08-.2,.07-.2c-1.09-.41-1.76-1.46-1.76-2.59,0-.34,.06-.68,.19-1.02,.39-1.04,1.32-1.71,2.33-1.82h.13l2.53-6.75,15.07,5.66v-1.48l-1.26,3.34-12.54-4.71-1.76,4.69,.09,.1c.47,.51,.74,1.19,.74,1.9,0,.33-.06,.67-.18,1.01-.43,1.14-1.5,1.85-2.62,1.85-.31,0-.63-.05-.94-.17l-.09,.19Z"/></g><g class="cls-141"><path class="cls-3" d="M91,250.32c1.09-.12,2.08-.84,2.5-1.96,.59-1.57-.17-3.31-1.7-3.89s-3.25,.23-3.84,1.8c-.42,1.12-.15,2.31,.59,3.12l-2.56,6.82,14.98,5.63,.92-2.45-12.54-4.71,1.65-4.36Z"/></g><g class="cls-139"><path class="cls-3" d="M91,250.32l.02,.21c1.17-.13,2.23-.9,2.68-2.1,.14-.38,.21-.78,.21-1.17,0-1.3-.77-2.52-2.04-2.99-.36-.13-.73-.2-1.09-.2-1.3,0-2.53,.82-3.02,2.13-.14,.38-.21,.77-.21,1.15,0,.82,.31,1.6,.85,2.18l.16-.14-.2-.07-2.64,7.02,15.38,5.78,1.07-2.84-12.54-4.71,1.57-4.17-.2-.08,.02,.21-.02-.21-.2-.07-1.72,4.57,12.54,4.71-.77,2.05-14.59-5.48,2.53-6.74-.09-.1c-.47-.51-.74-1.19-.74-1.9,0-.33,.06-.67,.18-1.01,.43-1.14,1.5-1.85,2.62-1.85,.31,0,.63,.06,.94,.17,1.09,.41,1.76,1.46,1.76,2.59,0,.34-.06,.68-.19,1.02-.39,1.04-1.32,1.71-2.33,1.82h-.13l-.05,.13,.24,.09Z"/></g><g class="cls-143"><path class="cls-3" d="M140.99,262.13l1.8-2.79,.97-7.71-.84-1.07,.8-.16,.54-.11,4.2-6.53,.42-3.29-2.73-1.81-7.58-.88-.77,.64-.22,.18-.13-.73-.1-.55-6.37-4.21-3.26-.38-1.79,2.79-.97,7.71,.84,1.06-.8,.16-.54,.11-4.2,6.53-.42,3.29,2.73,1.81,7.58,.88,.43-.36,.56-.47,.13,.73,.1,.55,6.37,4.21,3.25,.4Zm-8.1-10.74l-3.57,2.97-5.85-.68-.86-.57,.14-1.09,3.28-5.11,4.42-.91-2.8-3.53,.76-6.03,.59-.92,1.02,.12,4.92,3.25,.84,4.58,3.57-2.97,5.85,.68,.86,.57-.14,1.09-3.28,5.11-4.42,.91,2.8,3.53-.76,6.03-.59,.92-1.02-.12-4.92-3.25-.84-4.58Z"/></g><g class="cls-140"><path class="cls-3" d="M140.99,262.13l.18,.11,1.82-2.83,.99-7.85-.69-.86,.46-.1,.54-.11,.09-.02,4.27-6.65,.44-3.47-2.89-1.91-7.72-.89-.84,.7-.22,.18,.13,.16,.21-.04-.13-.73-.1-.55-.02-.09-6.48-4.28-3.44-.4-1.89,2.94-.99,7.85,.69,.86-.46,.1-.54,.11-.09,.02-4.27,6.65-.44,3.47,2.89,1.91,7.72,.89,.5-.42,.28-.23,.07,.37,.1,.55,.02,.09,6.48,4.28,3.44,.4,.07-.11-.18-.1,.03-.21-3.21-.37-6.25-4.13-.08-.46-.13-.73-.07-.36-.84,.7-.36,.3-7.44-.86-2.58-1.71,.39-3.11,4.12-6.42,.45-.09,.8-.16,.34-.07-1-1.26,.96-7.57,1.7-2.64,3.08,.36,6.25,4.13,.08,.46,.13,.73,.07,.36,.5-.41,.7-.58,7.44,.86,2.58,1.71-.4,3.11-4.12,6.42-.45,.09-.8,.16-.34,.07,1,1.27-.96,7.57-1.77,2.75,.18,.09,.03-.21-.03,.21Zm-8.1-10.74l-.14-.16-3.5,2.91-5.71-.66-.71-.47,.12-.91,3.21-4.99,4.67-.96-2.96-3.73,.74-5.9,.49-.77,.84,.1,4.8,3.17,.89,4.85,3.78-3.14,5.71,.66,.71,.47-.12,.91-3.21,4.99-4.67,.96,2.96,3.73-.74,5.89-.49,.77-.84-.1-4.8-3.17-.89-4.85-.28,.23,.14,.17-.21,.04,.85,4.67,5.03,3.33,1.2,.14,.69-1.07,.78-6.17-2.64-3.33,4.17-.86,3.36-5.22,.16-1.27-1.01-.67-5.99-.69-3.36,2.79-.79-4.32-5.03-3.33-1.2-.14-.69,1.07-.78,6.17,2.64,3.33-4.17,.86-3.36,5.23-.16,1.27,1.01,.67,5.99,.69,3.64-3.03-.13-.16-.21,.04,.21-.04Z"/></g><g class="cls-147"><polygon class="cls-3" points="103.49 239.57 116.23 247.95 120 241.74 121.25 234.57 106.15 232.49 106.88 227.02 109.91 222.4 122.65 230.67 126.58 224.67 132.25 225.36 132.57 222.77 125.28 221.88 121.89 227.06 109.14 218.79 104.37 226.09 103.21 234.72 118.21 236.79 117.51 240.8 115.4 244.28 102.75 235.96 97.93 243.22 96.72 251.86 111.76 254.02 110.9 260.16 116.97 264.29 118.44 262.12 113.71 258.91 114.71 251.81 99.67 249.64 100.44 244.17 103.49 239.57"/></g><g class="cls-118"><polygon class="cls-3" points="103.49 239.57 103.37 239.75 116.29 248.25 120.2 241.81 121.5 234.39 106.39 232.31 107.09 227.1 109.97 222.69 122.71 230.97 126.68 224.9 132.44 225.6 132.81 222.59 125.18 221.65 121.83 226.77 109.08 218.5 104.17 226.01 102.98 234.91 117.97 236.97 117.31 240.73 115.33 243.98 102.69 235.67 97.73 243.15 96.48 252.04 111.52 254.2 110.67 260.26 117.03 264.58 118.61 262.24 118.29 261.97 118.29 261.98 118.44 262.12 118.56 261.95 113.94 258.81 114.95 251.63 99.91 249.46 100.64 244.25 103.67 239.69 103.49 239.57 103.37 239.75 103.49 239.57 103.31 239.46 100.24 244.1 99.43 249.82 114.47 251.99 113.48 259.01 118.47 262.4 118.59 262.27 118.44 262.12 118.27 262.01 116.91 263.99 111.13 260.06 112 253.84 96.96 251.68 98.14 243.3 102.81 236.25 115.47 244.58 117.71 240.88 118.46 236.61 103.45 234.54 104.58 226.16 109.21 219.08 121.95 227.36 125.39 222.1 132.33 222.95 132.07 225.13 126.47 224.44 122.59 230.38 109.84 222.11 106.68 226.94 105.91 232.67 121.01 234.75 119.8 241.66 116.16 247.66 103.43 239.28 103.31 239.46 103.49 239.57"/></g><g class="cls-116"><polygon class="cls-3" points="157.95 240.18 158.64 234.02 152.47 230.06 151.05 232.26 155.86 235.34 155.06 242.47 170.15 244.24 169.52 249.73 166.59 254.41 153.64 246.37 150.03 252.68 148.97 259.87 164.12 261.56 163.53 267.04 160.63 271.74 147.67 263.81 143.91 269.91 138.22 269.37 137.97 271.97 145.28 272.67 148.53 267.4 161.49 275.33 166.07 267.91 167 259.24 151.95 257.57 152.54 253.55 154.56 250.01 167.43 258 172.05 250.61 173.04 241.95 157.95 240.18"/></g><g class="cls-115"><polygon class="cls-3" points="157.95 240.18 158.16 240.2 158.87 233.91 152.4 229.76 150.76 232.32 155.64 235.45 154.82 242.66 169.91 244.43 169.32 249.65 166.53 254.11 153.57 246.07 149.83 252.61 148.73 260.06 163.89 261.74 163.33 266.97 160.56 271.45 147.61 263.52 143.8 269.69 138.03 269.14 137.74 272.16 145.39 272.89 148.6 267.69 161.56 275.62 166.27 267.98 167.23 259.06 152.19 257.39 152.75 253.62 154.64 250.31 167.5 258.29 172.26 250.68 173.27 241.76 157.97 239.97 157.95 240.18 158.16 240.2 157.95 240.18 157.92 240.39 172.8 242.13 171.85 250.54 167.36 257.71 154.49 249.72 152.34 253.48 151.71 257.76 166.76 259.43 165.86 267.84 161.42 275.04 148.46 267.11 145.16 272.45 138.2 271.78 138.41 269.6 144.02 270.14 147.74 264.1 160.7 272.03 163.74 267.11 164.35 261.37 149.21 259.69 150.23 252.75 153.71 246.66 166.66 254.7 169.73 249.8 170.38 244.05 155.29 242.29 156.09 235.24 151.35 232.19 152.53 230.35 158.42 234.13 157.71 240.37 157.92 240.39 157.95 240.18"/></g><g class="cls-117"><path class="cls-3" d="M84.85,244.86l3.15-4.7c1.99-2.97,4.49-5.22,7.42-6.69l1.07-.54-.44-1.11c-1.22-3.05-1.6-6.4-1.12-9.94l.77-5.61-3.15,4.71c-1.99,2.97-4.49,5.22-7.42,6.69l-1.07,.54,.45,1.11c1.22,3.05,1.6,6.4,1.12,9.94l-.78,5.6Zm7.28-19.21c.08,2.08,.44,4.11,1.09,6.04-1.76,1.01-3.37,2.29-4.81,3.79-.08-2.08-.44-4.11-1.09-6.04,1.76-1.01,3.37-2.29,4.81-3.79"/></g><g class="cls-114"><path class="cls-3" d="M84.85,244.86l.18,.12,3.15-4.7c1.97-2.95,4.45-5.17,7.34-6.62l1.25-.63-.52-1.29c-.87-2.17-1.31-4.49-1.31-6.94,0-.95,.07-1.91,.2-2.89l.89-6.52-3.66,5.47c-1.97,2.95-4.45,5.17-7.34,6.62l-1.25,.63,.52,1.29c.87,2.17,1.31,4.49,1.31,6.94,0,.95-.07,1.91-.2,2.9l-.89,6.52,.51-.77-.18-.13,.21,.03,.77-5.61c.14-1,.2-1.99,.2-2.95,0-2.49-.45-4.87-1.34-7.09l-.37-.93,.9-.45c2.96-1.49,5.49-3.77,7.5-6.77l2.64-3.94-.64,4.7c-.14,1-.2,1.99-.2,2.95,0,2.49,.45,4.87,1.34,7.09l.37,.93-.9,.45c-2.96,1.49-5.49,3.77-7.5,6.77l-3.15,4.7,.17,.12,.21,.03-.21-.03Zm7.28-19.21h-.21c.08,2.11,.45,4.16,1.1,6.11l.2-.07-.11-.18c-1.78,1.02-3.41,2.31-4.86,3.83l.15,.15h.21c-.08-2.11-.45-4.16-1.1-6.11l-.2,.07,.11,.18c1.78-1.02,3.41-2.31,4.86-3.83l-.15-.15h0l-.15-.15c-1.42,1.49-3.02,2.75-4.77,3.76l-.15,.09,.06,.16c.64,1.91,1,3.92,1.08,5.98l.02,.5,.35-.36c1.42-1.49,3.02-2.75,4.77-3.76l.15-.09-.05-.16c-.64-1.91-1-3.92-1.08-5.98l-.02-.5-.35,.36,.14,.15Z"/></g></g><path class="cls-3" d="M168.3,270.76l9.36-22.48-80.34-43.51-16.89,45.59,1.13,.5c43.4,19.25,86.65,19.9,86.74,19.9l-1.17-1.83h-.11c-2.4-.1-42.85-2.05-84.38-20.48l-.54,1.21,1.24,.46,15.4-41.58,75.57,40.92-8.44,20.28,2.43,1.02Z"/></g></g></svg>